<svg xmlns="http://www.w3.org/2000/svg" width="51" height="51" viewBox="0 0 51 51">
    <g fill="#F8DDBA" fill-rule="evenodd">
        <path d="M20.36 32.266a.993.993 0 0 0 1.407-.14l4.046-4.936 4.46 4.444a.994.994 0 0 0 1.414-.003 1 1 0 0 0-.003-1.413l-4.597-4.582 4.148-5.063a1.002 1.002 0 0 0-.14-1.409 1.002 1.002 0 0 0-1.407.14l-4.025 4.913-5.008-4.992a.999.999 0 1 0-1.411 1.415l5.146 5.13-4.17 5.088a1.001 1.001 0 0 0 .14 1.408"/>
        <path d="M8.238 25.079a1.003 1.003 0 0 0-1.36-.387l-4.79 2.674C1.24 16.86 7.583 6.707 18.016 3.215c10.917-3.654 22.663 1.2 28.02 10.952a.998.998 0 0 0 1.193.48c.583-.195.867-.874.572-1.413C41.995 2.632 29.238-2.65 17.38 1.318 5.55 5.278-1.45 17.131.256 29.066a.656.656 0 0 0 .004.046l.003.031c.005.037.029.062.038.096.02.077.033.156.073.23.01.016.024.027.034.043.02.033.045.059.07.088a.924.924 0 0 0 .212.198c.024.016.046.035.07.05.114.062.235.105.362.122.014.002.029-.001.044 0 .074.006.149.012.224.002.036-.005.07-.027.106-.037.025-.005.05.001.075-.007.03-.011.054-.033.084-.046.026-.012.054-.013.08-.028l6.118-3.415a1 1 0 0 0 .386-1.36M50.763 22.491l-.003-.039-.001-.016a.966.966 0 0 0-.103-.318c-.005-.01-.004-.02-.009-.029-.004-.007-.01-.01-.014-.017a1 1 0 0 0-.22-.26l-.059-.045a.987.987 0 0 0-.278-.142c-.026-.009-.052-.013-.079-.019a.987.987 0 0 0-.308-.028l-.036.003a.986.986 0 0 0-.21.045c-.033.011-.056.033-.087.047-.022.01-.046.008-.067.02l-6.143 3.371a.998.998 0 1 0 .962 1.754l4.776-2.62c.559 10.285-5.738 20.115-15.968 23.54-10.725 3.588-22.248-1.034-27.729-10.444a1.003 1.003 0 0 0-1.186-.46c-.595.2-.878.897-.563 1.44 5.941 10.232 18.463 15.258 30.112 11.36 11.632-3.893 18.6-15.415 17.213-27.143"/>
    </g>
</svg>
