<svg xmlns="http://www.w3.org/2000/svg" width="85" height="79" viewBox="0 0 85 79">
    <path fill="#323E4F" fill-rule="evenodd" d="M84.07 43.263c-.16-.717-.162-1.384-.009-2a26.602 26.602 0 0 1-.173-4c.046-1.232.093-2.567.14-4.004.153-.825.2-1.672.145-2.541a38.752 38.752 0 0 0-.244-2.536c-.029-.099-.062-.183-.093-.275a25.388 25.388 0 0 1-.09-3.151c.045-1.232.092-2.567.138-4.004.153-.824.2-1.672.146-2.541a39.824 39.824 0 0 0-.154-1.734c.014-.076.023-.153.042-.229a26.685 26.685 0 0 1-.173-3.999c.046-1.232.093-2.566.14-4.003.152-.825.2-1.672.145-2.542a38.507 38.507 0 0 0-.245-2.535c-.264-.92-.618-1.583-1.061-1.985a4.816 4.816 0 0 0-1.37-.903L74.8.228a3.488 3.488 0 0 0-1.64-.206c-.572.059-1.119.094-1.638.102-.467.107-.884.114-1.248.019-.728.319-1.47.38-2.223.187a5.748 5.748 0 0 0-2.303-.118 3.7 3.7 0 0 1-1.676.257 4.065 4.065 0 0 0-1.755.257 9.615 9.615 0 0 0-2.692-.19 9.15 9.15 0 0 1-2.616-.19c-.31.312-.648.47-1.012.476a6.933 6.933 0 0 1-1.053-.06c-.34-.048-.677-.093-1.015-.14-.34-.047-.663.089-.974.401a2.387 2.387 0 0 0-1.016-.37 8.083 8.083 0 0 0-1.17-.059c-.262-.1-.496-.018-.702.242-.207.259-.442.184-.703-.22-1.248.224-2.431.268-3.55.131-.284-.034-.573-.06-.866-.079-.073-.036-.146-.075-.22-.105L38.173.508a3.496 3.496 0 0 0-1.64-.206 18.45 18.45 0 0 1-1.637.102c-.468.108-.885.115-1.249.02a3.329 3.329 0 0 1-2.223.187 5.734 5.734 0 0 0-2.302-.118 3.701 3.701 0 0 1-1.677.256 4.064 4.064 0 0 0-1.754.258 9.644 9.644 0 0 0-2.693-.19c-.859.064-1.73 0-2.615-.191-.311.313-.65.472-1.012.477a7.127 7.127 0 0 1-1.054-.06c-.34-.049-.677-.094-1.015-.14-.339-.047-.663.088-.974.4a2.395 2.395 0 0 0-1.016-.369 8.185 8.185 0 0 0-1.17-.059c-.262-.1-.495-.019-.702.241-.207.259-.441.186-.703-.22-1.248.224-2.431.268-3.55.132a16.2 16.2 0 0 0-3.55-.023c-.571.316-1.13.453-1.676.41a17.55 17.55 0 0 0-1.678-.051 5.968 5.968 0 0 1-1.127 1.018c-.39.261-.66.856-.812 1.782.057 1.332.023 2.59-.101 3.772C.119 9.116.11 10.424.22 11.861c.107.818.163 1.664.167 2.537l.008 2.036c-.016.08-.037.15-.05.236.056 1.333.022 2.59-.102 3.773-.124 1.18-.133 2.488-.023 3.925.107.818.163 1.664.167 2.537l.011 2.692c.004.904.02 1.78.049 2.635a23.89 23.89 0 0 1-.061.718c-.124 1.18-.132 2.488-.023 3.925.107.818.163 1.664.167 2.536l.011 2.694c.003.66.015 1.303.03 1.937-.158.31-.285.714-.37 1.232.056 1.33.023 2.589-.101 3.772-.125 1.18-.133 2.488-.023 3.925.107.818.163 1.664.167 2.537l.01 2.692c.005.924.02 1.82.051 2.693.002.048.007.094.009.142-.011.126-.02.253-.032.377-.124 1.18-.133 2.488-.023 3.925.107.819.163 1.664.167 2.537l.011 2.693c.004.923.02 1.82.05 2.692.03.87.15 1.664.361 2.38.314.508.63 1.041.943 1.602.315.558.68.887 1.097.984.417.301.846.345 1.288.134.44-.214.868-.425 1.285-.635.417.506.887.73 1.407.67.52-.06 1.014-.144 1.481-.253.726-.526 1.441-.638 2.145-.34.703.297 1.418.286 2.145-.033.522.401 1.03.47 1.523.207.493-.264.975-.144 1.445.363.52.197.976.163 1.365-.098.39-.262.87-.297 1.443-.098 2.027-.546 4.016-.654 5.968-.322 1.952.329 3.968.374 6.048.138.466-.522.92-.606 1.365-.251.442.351.924.42 1.444.209.414-.315.804-.45 1.168-.403a4.28 4.28 0 0 1 1.094.291c.364.148.743.27 1.133.367.39.095.793.038 1.209-.173a3.805 3.805 0 0 1 1.825-.312c.351.216.71.252 1.08.108a3.811 3.811 0 0 0 1.618-.326c.098.047.198.085.298.117.275.168.566.246.877.21.312-.035.612-.083.905-.137.196.012.389.034.575.078.16-.163.333-.326.507-.489.553-.255 1.1-.273 1.639-.046.703.298 1.418.287 2.146-.032.52.401 1.028.47 1.522.208.493-.265.975-.145 1.445.362.52.197.976.163 1.365-.098.39-.263.87-.296 1.443-.098 2.027-.546 4.016-.653 5.969-.322 1.951.329 3.967.374 6.047.139.466-.523.92-.606 1.364-.252.443.351.926.42 1.445.209.414-.314.804-.45 1.169-.403.363.045.728.143 1.093.292.364.147.743.268 1.133.366.39.096.793.039 1.209-.172a3.82 3.82 0 0 1 2.262-.265 3.82 3.82 0 0 0 2.262-.265c.416.198.859.268 1.327.21.468-.06.91-.04 1.327.057.414-.418.866-.836 1.36-1.253.492-.418.787-1.192.888-2.322a4.344 4.344 0 0 0 .069-2.155c-.16-.717-.162-1.383-.009-2a26.649 26.649 0 0 1-.173-4c.047-1.232.094-2.567.14-4.004.153-.824.2-1.672.145-2.541a38.555 38.555 0 0 0-.244-2.535c-.05-.17-.105-.324-.16-.477a24.889 24.889 0 0 1-.063-2.81c.046-1.231.093-2.566.14-4.003.152-.825.2-1.672.145-2.541-.008-.134-.022-.263-.032-.395.041-.213.076-.436.098-.683a4.34 4.34 0 0 0 .07-2.155" opacity=".251"/>
</svg>
