<svg xmlns="http://www.w3.org/2000/svg" width="150" height="79" viewBox="0 0 150 79">
    <path fill="#323E4F" fill-rule="evenodd" d="M148.973 43.263c-.282-.717-.287-1.384-.015-2-.288-1.437-.39-2.768-.306-4 .08-1.232.165-2.567.247-4.004.27-.825.354-1.672.258-2.541-.1-.872-.245-1.718-.434-2.536-.05-.099-.11-.183-.164-.275-.17-1.115-.228-2.166-.161-3.151.082-1.232.165-2.567.247-4.004a5.95 5.95 0 0 0 .258-2.541 23.046 23.046 0 0 0-.273-1.734c.025-.076.04-.153.074-.229-.287-1.436-.39-2.766-.306-3.999.082-1.232.165-2.566.247-4.003a5.95 5.95 0 0 0 .258-2.542c-.1-.872-.244-1.717-.434-2.535-.469-.92-1.096-1.583-1.882-1.985a10.669 10.669 0 0 0-2.426-.903L132.546.228c-.924-.2-1.892-.267-2.905-.206a59.303 59.303 0 0 1-2.903.102c-.828.107-1.567.114-2.212.019-1.29.319-2.603.38-3.94.187a17.875 17.875 0 0 0-4.08-.118c-.92.212-1.91.298-2.97.257a12.39 12.39 0 0 0-3.11.257 29.944 29.944 0 0 0-4.77-.19c-1.522.064-3.066 0-4.634-.19-.55.312-1.15.47-1.794.476a21.674 21.674 0 0 1-1.866-.06c-.602-.048-1.2-.093-1.8-.14a2.95 2.95 0 0 0-1.725.401 6.563 6.563 0 0 0-1.8-.37 25.29 25.29 0 0 0-2.074-.059c-.464-.1-.878-.018-1.243.242-.367.259-.784.184-1.246-.22-2.211.224-4.308.268-6.29.131a47.667 47.667 0 0 0-1.535-.079c-.13-.036-.26-.075-.39-.105L67.644.508c-.925-.2-1.893-.266-2.906-.206a57.69 57.69 0 0 1-2.902.102c-.83.108-1.568.115-2.213.02-1.29.319-2.603.38-3.94.187a17.831 17.831 0 0 0-4.079-.118c-.92.212-1.912.297-2.971.256a12.384 12.384 0 0 0-3.109.258 30.032 30.032 0 0 0-4.772-.19c-1.52.064-3.065 0-4.633-.191a3.638 3.638 0 0 1-1.794.477 22.281 22.281 0 0 1-1.867-.06c-.602-.049-1.2-.094-1.799-.14a2.951 2.951 0 0 0-1.725.4 6.583 6.583 0 0 0-1.8-.369 25.611 25.611 0 0 0-2.075-.059c-.463-.1-.877-.019-1.242.241-.368.259-.783.186-1.247-.22-2.21.224-4.308.268-6.29.132a50.762 50.762 0 0 0-6.291-.023 8.625 8.625 0 0 1-2.97.41c-.968-.044-1.96-.06-2.973-.051-.643.414-1.308.754-1.997 1.018-.69.261-1.169.856-1.44 1.782.102 1.332.042 2.59-.179 3.772-.22 1.18-.234 2.488-.04 3.925.19.818.289 1.664.295 2.537l.016 2.036c-.03.08-.066.15-.091.236.1 1.333.041 2.59-.18 3.773-.22 1.18-.234 2.488-.04 3.925.19.818.289 1.664.295 2.537l.02 2.692c.007.904.035 1.78.087 2.635-.032.241-.064.482-.108.718-.22 1.18-.235 2.488-.04 3.925.19.818.289 1.664.296 2.536.005.87.012 1.77.02 2.694.004.66.025 1.303.053 1.937-.282.31-.506.714-.657 1.232.1 1.33.04 2.589-.18 3.772-.22 1.18-.234 2.488-.04 3.925.19.818.29 1.664.296 2.537.006.87.012 1.769.02 2.692.006.924.034 1.82.089 2.693.002.048.011.094.015.142-.02.126-.034.253-.057.377-.22 1.18-.234 2.488-.04 3.925.19.819.29 1.664.295 2.537l.02 2.693a49.8 49.8 0 0 0 .09 2.692c.052.87.265 1.664.639 2.38.557.508 1.115 1.041 1.671 1.602.557.558 1.204.887 1.943.984.74.301 1.5.345 2.283.134.78-.214 1.539-.425 2.277-.635.74.506 1.571.73 2.493.67.92-.06 1.797-.144 2.625-.253 1.286-.526 2.553-.638 3.8-.34a7.928 7.928 0 0 0 3.802-.033c.924.401 1.823.47 2.699.207.872-.264 1.726-.144 2.56.363.922.197 1.729.163 2.419-.098.69-.262 1.54-.297 2.557-.098 3.591-.546 7.116-.654 10.575-.322 3.46.329 7.032.374 10.717.138.826-.522 1.631-.606 2.418-.251.785.351 1.639.42 2.56.209.734-.315 1.425-.45 2.07-.403.645.044 1.291.142 1.939.291.645.148 1.315.27 2.008.367a5.153 5.153 0 0 0 2.141-.173 11.487 11.487 0 0 1 3.233-.312c.623.216 1.26.252 1.914.108.98.01 1.937-.096 2.869-.326.173.047.35.085.527.117a3.956 3.956 0 0 0 1.554.21 43.543 43.543 0 0 0 1.604-.137c.347.012.689.034 1.018.078.286-.163.592-.326.899-.489a5.916 5.916 0 0 1 2.904-.046 7.94 7.94 0 0 0 3.803-.032c.923.401 1.822.47 2.697.208.873-.265 1.728-.145 2.561.362.921.197 1.73.163 2.419-.098.69-.263 1.54-.296 2.557-.098 3.591-.546 7.117-.653 10.576-.322 3.458.329 7.03.374 10.716.139.826-.523 1.631-.606 2.418-.252.785.351 1.64.42 2.56.209.734-.314 1.424-.45 2.07-.403.645.045 1.292.143 1.939.292.645.147 1.316.268 2.007.366a5.152 5.152 0 0 0 2.142-.172 11.645 11.645 0 0 1 4.008-.265c1.383.141 2.719.053 4.008-.265a7.115 7.115 0 0 0 2.352.21c.83-.06 1.612-.04 2.351.057a36.991 36.991 0 0 1 2.41-1.253c.872-.418 1.396-1.192 1.573-2.322.363-.721.404-1.441.123-2.155-.283-.717-.287-1.383-.015-2-.287-1.437-.39-2.767-.306-4 .082-1.232.165-2.567.248-4.004.27-.824.354-1.672.257-2.541a22.419 22.419 0 0 0-.434-2.535c-.086-.17-.185-.324-.283-.477a14.09 14.09 0 0 1-.111-2.81c.082-1.231.165-2.566.247-4.003a5.95 5.95 0 0 0 .258-2.541c-.015-.134-.039-.263-.057-.395.073-.213.135-.436.174-.683.362-.722.404-1.442.123-2.155" opacity=".794"/>
</svg>
