<svg xmlns="http://www.w3.org/2000/svg" width="194" height="61" viewBox="0 0 194 61">
    <path fill="#495365" fill-rule="evenodd" d="M117.16 37.182l.009.75c.001.165.118.25.354.25.464-.172.636-.38.517-.63-.122-.25-.414-.373-.88-.37zm35.137-1.307l.349-.386-.702.006.353.38zm-125.024.307c-.867.579-1.188 1.436-.961 2.58.002.282.328.426.98.42.43-.293.697-.866.803-1.724.101-.856-.171-1.282-.822-1.276zm101.99.736c-.234-.502-.81-.743-1.724-.736-.687.006-1.026.632-1.017 1.887.006.752.578 1.122 1.728 1.112.906-1.01 1.244-1.765 1.013-2.263zm-85.302-.475c-.57.005-.854.357-.85 1.052.191.46.576.692 1.147.687.571-.006.805-.417.705-1.226-.103-.816-.435-.987-1.002-.513zm102.168-1.416c-.247-.575-.73-.852-1.453-.845-1.206.58-1.563 1.302-1.07 2.154.003.57.124.783.365.64.236-.15.599-.08 1.087.206.958-.587 1.314-1.3 1.07-2.155zM57.46 34.49l.003.384.35-.003-.002-.383-.351.002zm100.454-1.188c-.315.003-.468.197-.466.591.156.192.39.29.708.288.153-.2.232-.444.23-.736-.002-.295-.16-.344-.472-.143zm-65.132-.696c-.162-.57-.472-.567-.938.008.003.381.238.571.707.567-.002-.193.035-.287.115-.288.077 0 .117-.1.116-.287zm12.554-1.962a2.443 2.443 0 0 1-1.314-.345c-.375-.237-.691-.118-.931.362.004.47.129.825.383 1.06.998.464 1.748.576 2.25.34.24-.478.238-.773-.008-.887-.254-.12-.378-.298-.38-.53zm-64.364.537c-.395.265-.687.337-.881.208-.199-.136-.395.066-.585.605-.195.263-.193.53.005.798.394.523.835.518 1.323-.014.485-.542.53-1.073.138-1.597zm76.294-.881c.004.512.121.77.357.768l.345-.774-.702.006zm24.984.267c-.236-.267-.818-.393-1.743-.386-.233.002-.466.136-.692.408-.233.265-.231.535.005.803.233.531.701.795 1.398.789 1.158-.01 1.5-.551 1.032-1.614zm-42.908.74c-.513-1.21-1.134-1.443-1.874-.71l.006.725c.495-.004.748.176.751.536.003.363.249.417.75.176.245-.002.307-.125.183-.362-.13-.244-.068-.363.184-.364zm30.272-4.126c-.193.001-.285.22-.282.67.188-.001.287.05.287.165.001.11.096.166.288.165.568-.674.467-1.007-.293-1zm13.091-.879c-.17.195-.253.394-.252.59.17.192.427.292.77.289.167-.2.21-.445.124-.737-.09-.294-.303-.343-.642-.142zm-66.051.213c-.506.004-.75.598-.742 1.785.504.587.883.883 1.135.88.498-.303.746-.974.74-2.008-.008-1.044-.386-1.264-1.133-.657zm37.683 1.353c-.589-1.293-1.08-2.066-1.467-2.316-.196-.26-.777-.38-1.744-.37.59 1.287.642 2.518.168 3.69-.478 1.17-.712 2.272-.706 3.309l.581-.006c.378-1.303.954-2.02 1.728-2.155.772-.142 1.252-.856 1.44-2.152zm-67.72-3.687c-.469.448-.697.784-.695 1.008.237.665.712.997 1.415.992.463-.451.575-.896.34-1.339-.24-.448-.594-.664-1.06-.661zm101.267-1c-.667.826-.887 1.648-.656 2.464.45.54.897.67 1.347.398.443-.553.55-1.17.324-1.847-.231-.683-.57-1.02-1.015-1.015zm6.237-1.748c-.257.002-.641-.07-1.151-.209-.517-.146-.897.076-1.145.665.004.578.198.87.581.867.384-.004.828.136 1.346.425.249-.296.505-.517.76-.662.251-.153.123-.51-.39-1.086zm39.19-1.249c-.19 3.486-.382 6.723-.572 9.713-.193 2.99.045 6.217.71 9.701-.63 1.498-.619 3.114.034 4.854.652 1.732.556 3.476-.283 5.228-.411 2.74-1.624 4.618-3.643 5.634a84.872 84.872 0 0 0-5.58 3.038c-1.713-.236-3.525-.284-5.445-.137-1.92.14-3.737-.031-5.446-.512-2.986.774-6.075.987-9.28.644-3.204-.345-6.299-.13-9.28.643-1.708.512-3.358.648-4.959.418a53.587 53.587 0 0 1-4.649-.89 27.808 27.808 0 0 0-4.488-.706c-1.496-.117-3.094.214-4.795.976-2.132.514-4.109.347-5.927-.506-1.822-.86-3.686-.657-5.598.61-8.535.572-16.805.461-24.814-.336-8.01-.804-16.172-.544-24.487.782-2.355-.482-4.325-.4-5.92.237-1.598.634-3.467.714-5.602.238-1.93-1.231-3.908-1.522-5.929-.878-2.027.636-4.109.469-6.247-.505-2.987.775-5.917.801-8.804.08-2.886-.722-5.821-.45-8.798.827a91.437 91.437 0 0 1-6.08.613c-2.134.144-4.059-.4-5.774-1.628a485.97 485.97 0 0 1-5.27 1.543c-1.813.51-3.575.403-5.285-.327-1.712-.235-3.21-1.034-4.5-2.385a108.551 108.551 0 0 0-3.869-3.885c-.867-1.739-1.36-3.665-1.48-5.775-.126-2.116-.191-4.292-.207-6.532-.015-2.24-.03-4.422-.046-6.533a29.348 29.348 0 0 0-.684-6.153c-.45-3.487-.417-6.66.094-9.522.51-2.87.648-5.921.416-9.15.624-2.247 1.734-3.692 3.33-4.325A24.69 24.69 0 0 0 8.781 2.81c2.346-.02 4.641.016 6.884.125 2.241.103 4.53-.228 6.875-.996 5.122-.298 9.973-.277 14.568.055 4.59.332 9.446.224 14.565-.318 1.072.983 2.034 1.161 2.886.534.845-.633 1.805-.827 2.876-.586a56.145 56.145 0 0 1 4.804.143c1.492.109 2.884.406 4.169.897 1.275-.76 2.603-1.087 3.995-.97 1.386.11 2.772.22 4.164.336 1.386.11 2.828.162 4.323.147a8.13 8.13 0 0 0 4.154-1.158c3.63.463 7.207.618 10.729.464 3.52-.16 7.203-.007 11.048.46a27.387 27.387 0 0 1 7.2-.624c2.451.1 4.746-.108 6.878-.623 3.2-.28 6.347-.187 9.447.287 3.095.47 6.135.32 9.121-.455 1.493.231 3.204.216 5.123-.047 2.13-.019 4.371-.103 6.721-.247 2.346-.148 4.587.017 6.727.5l26.894.131a24.064 24.064 0 0 1 5.618 2.19c1.818.976 3.27 2.584 4.356 4.813a57.293 57.293 0 0 1 1.004 6.152c.225 2.109.03 4.164-.597 6.165z"/>
</svg>
