<svg xmlns="http://www.w3.org/2000/svg" width="194" height="60" viewBox="0 0 194 60">
    <path fill="#F4CB5C" fill-rule="evenodd" d="M117.16 37l.009.751c.001.164.118.25.354.249.464-.171.636-.38.517-.63-.122-.25-.414-.373-.88-.37zm35.137-1.307l.349-.386-.702.006.353.38zM27.273 36c-.867.58-1.188 1.437-.961 2.58.002.282.328.426.98.42.43-.293.697-.865.803-1.724.101-.856-.171-1.282-.822-1.276zm101.99.737c-.234-.503-.81-.744-1.724-.737-.687.006-1.026.632-1.017 1.888.006.752.578 1.122 1.728 1.112.906-1.01 1.244-1.766 1.013-2.263zm-85.302-.476c-.57.006-.854.357-.85 1.053.191.46.576.691 1.147.686.571-.006.805-.417.705-1.225-.103-.817-.435-.988-1.002-.514zm102.168-1.416c-.247-.574-.73-.852-1.453-.845-1.206.581-1.563 1.302-1.07 2.154.003.57.124.784.365.64.236-.15.599-.079 1.087.206.958-.587 1.314-1.3 1.07-2.155zm-88.668-.536l.003.384.35-.003-.002-.383-.351.002zm100.454-1.187c-.315.003-.468.196-.466.59.156.192.39.29.708.288.153-.2.232-.444.23-.736-.002-.294-.16-.344-.472-.142zm-65.132-.697c-.162-.57-.472-.567-.938.009.003.38.238.57.707.566-.002-.193.035-.287.115-.287.077-.001.117-.1.116-.288zm12.554-1.962a2.443 2.443 0 0 1-1.314-.345c-.375-.237-.691-.118-.931.362.004.47.129.826.383 1.06.998.465 1.748.576 2.25.34.24-.478.238-.773-.008-.887-.254-.12-.378-.297-.38-.53zM40.973 31c-.395.265-.687.337-.881.208-.199-.136-.395.066-.585.605-.195.263-.193.531.005.798.394.523.835.518 1.323-.014.485-.542.53-1.072.138-1.597zm76.294-.881c.004.512.121.77.357.768l.345-.774-.702.006zm24.984.268c-.236-.268-.818-.394-1.743-.387-.233.002-.466.137-.692.409-.233.264-.231.535.005.803.233.53.701.794 1.398.788 1.158-.01 1.5-.551 1.032-1.613zm-42.908.74c-.513-1.21-1.134-1.443-1.874-.711l.006.725c.495-.004.748.176.751.536.003.363.249.417.75.176.245-.002.307-.125.183-.362-.13-.244-.068-.362.184-.364zM129.615 27c-.193.002-.285.221-.282.67.188-.001.287.05.287.165.001.11.096.167.288.165.568-.674.467-1.007-.293-1zm13.091-.878c-.17.195-.253.393-.252.59.17.192.427.291.77.288.167-.2.21-.444.124-.736-.09-.295-.303-.343-.642-.142zm-66.051.212c-.506.005-.75.598-.742 1.786.504.587.883.882 1.135.88.498-.304.746-.975.74-2.009-.008-1.044-.386-1.263-1.133-.657zm37.683 1.353c-.589-1.293-1.08-2.065-1.467-2.315-.196-.26-.777-.382-1.744-.371.59 1.288.642 2.518.168 3.69-.478 1.17-.712 2.272-.706 3.309l.581-.006c.378-1.303.954-2.02 1.728-2.154.772-.143 1.252-.857 1.44-2.153zM46.618 24c-.469.448-.697.784-.695 1.009.237.665.712.996 1.415.99.463-.45.575-.895.34-1.337-.24-.449-.594-.665-1.06-.662zm101.267-1c-.667.826-.887 1.649-.656 2.464.45.54.897.67 1.347.398.443-.553.55-1.17.324-1.846-.231-.684-.57-1.02-1.015-1.016zm6.237-1.748c-.257.002-.641-.07-1.151-.208-.517-.147-.897.075-1.145.665.004.577.198.87.581.866.384-.003.828.136 1.346.425.249-.296.505-.517.76-.662.251-.153.123-.51-.39-1.086zm39.19-1.249c-.19 3.486-.382 6.724-.572 9.713-.193 2.99.045 6.218.71 9.702-.63 1.498-.619 3.113.034 4.854.652 1.731.556 3.475-.283 5.228-.411 2.74-1.624 4.617-3.643 5.634a84.872 84.872 0 0 0-5.58 3.038c-1.713-.237-3.525-.284-5.445-.138-1.92.14-3.737-.031-5.446-.512-2.986.775-6.075.988-9.28.645-3.204-.345-6.299-.13-9.28.642-1.708.512-3.358.649-4.959.418a53.587 53.587 0 0 1-4.649-.89 27.808 27.808 0 0 0-4.488-.706c-1.496-.116-3.094.214-4.795.977-2.132.513-4.109.347-5.927-.507-1.822-.86-3.686-.656-5.598.61-8.535.572-16.805.462-24.814-.336-8.01-.803-16.172-.544-24.487.782-2.355-.481-4.325-.4-5.92.238-1.598.633-3.467.714-5.602.237-1.93-1.23-3.908-1.521-5.929-.878-2.027.637-4.109.469-6.247-.505-2.987.775-5.917.802-8.804.08-2.886-.721-5.821-.45-8.798.827a91.437 91.437 0 0 1-6.08.614c-2.134.143-4.059-.4-5.774-1.628a485.97 485.97 0 0 1-5.27 1.542c-1.813.51-3.575.403-5.285-.326-1.712-.236-3.21-1.034-4.5-2.386a108.551 108.551 0 0 0-3.869-3.885c-.867-1.738-1.36-3.665-1.48-5.775-.126-2.116-.191-4.292-.207-6.532-.015-2.24-.03-4.422-.046-6.532a29.348 29.348 0 0 0-.684-6.154c-.45-3.487-.417-6.66.094-9.522.51-2.87.648-5.92.416-9.15.624-2.247 1.734-3.692 3.33-4.325a24.69 24.69 0 0 0 4.626-2.469c2.346-.02 4.641.017 6.884.125 2.241.103 4.53-.227 6.875-.996 5.122-.297 9.973-.277 14.568.055 4.59.333 9.446.224 14.565-.317 1.072.982 2.034 1.16 2.886.533.845-.632 1.805-.827 2.876-.586a56.145 56.145 0 0 1 4.804.144c1.492.108 2.884.406 4.169.896 1.275-.759 2.603-1.086 3.995-.97 1.386.11 2.772.22 4.164.336 1.386.11 2.828.162 4.323.148A8.13 8.13 0 0 0 83.044.838c3.63.463 7.207.618 10.729.464 3.52-.161 7.203-.008 11.048.46a27.387 27.387 0 0 1 7.2-.625c2.451.1 4.746-.108 6.878-.623 3.2-.28 6.347-.186 9.447.288 3.095.469 6.135.318 9.121-.456 1.493.232 3.204.216 5.123-.046 2.13-.02 4.371-.104 6.721-.247 2.346-.149 4.587.016 6.727.5l26.894.13a24.064 24.064 0 0 1 5.618 2.19c1.818.976 3.27 2.584 4.356 4.814a57.293 57.293 0 0 1 1.004 6.151c.225 2.109.03 4.164-.597 6.165z"/>
</svg>
