<svg xmlns="http://www.w3.org/2000/svg" width="318" height="66" viewBox="0 0 318 66">
    <path fill="#7F8394" fill-rule="evenodd" d="M316.722 36.097c-.599-.598-.61-1.154-.031-1.669-.612-1.198-.83-2.309-.651-3.337.172-1.028.35-2.142.526-3.34.574-.689.752-1.396.547-2.121a9.204 9.204 0 0 0-.922-2.115c-.107-.083-.234-.153-.348-.23-.363-.93-.486-1.807-.343-2.63.174-1.027.35-2.14.525-3.34.574-.688.755-1.395.549-2.12a9.11 9.11 0 0 0-.58-1.447c.052-.063.086-.128.156-.19-.61-1.2-.828-2.309-.65-3.338.174-1.027.35-2.141.525-3.34.574-.688.755-1.395.549-2.12a9.146 9.146 0 0 0-.923-2.116c-.996-.767-2.329-1.32-4-1.656a48.962 48.962 0 0 0-5.158-.753L281.799.19a57.205 57.205 0 0 0-6.177-.172c-2.156.05-4.215.078-6.171.085-1.76.09-3.332.096-4.703.016a54.59 54.59 0 0 1-8.375.156 96.464 96.464 0 0 0-8.675-.099 60.068 60.068 0 0 1-6.315.215 66.308 66.308 0 0 0-6.612.215c-3.529-.161-6.911-.214-10.143-.158-3.234.053-6.518 0-9.852-.16-1.17.26-2.443.394-3.814.398-1.372.005-2.695-.012-3.967-.05-1.28-.04-2.552-.078-3.825-.116a14.67 14.67 0 0 0-3.668.334 33.582 33.582 0 0 0-3.828-.309c-1.374-.04-2.844-.054-4.41-.05-.984-.082-1.865-.015-2.642.203-.78.215-1.665.153-2.649-.185-4.701.187-9.16.225-13.374.11-1.071-.028-2.16-.05-3.261-.066-.277-.03-.552-.062-.83-.088L143.812.424a57.352 57.352 0 0 0-6.176-.172c-2.158.05-4.216.079-6.172.085-1.763.09-3.332.096-4.704.016a54.513 54.513 0 0 1-8.375.157 96.223 96.223 0 0 0-8.673-.099 60.1 60.1 0 0 1-6.317.214 66.281 66.281 0 0 0-6.61.215A162.16 162.16 0 0 0 86.642.682c-3.235.053-6.518 0-9.851-.16-1.172.261-2.446.394-3.814.399-1.373.004-2.697-.013-3.97-.051-1.279-.04-2.55-.078-3.824-.116a14.677 14.677 0 0 0-3.668.334 33.687 33.687 0 0 0-3.828-.309 138.55 138.55 0 0 0-4.41-.049c-.984-.083-1.865-.016-2.642.202-.782.215-1.664.154-2.65-.184-4.7.186-9.158.224-13.373.11a274.763 274.763 0 0 0-13.376-.02 45.34 45.34 0 0 1-6.313.343c-2.06-.037-4.166-.05-6.32-.043-1.367.346-2.782.63-4.248.85-1.466.217-2.484.714-3.059 1.486.215 1.112.088 2.16-.381 3.148-.468.984-.5 2.076-.085 3.275.403.682.613 1.388.627 2.116l.032 1.7c-.062.067-.139.124-.193.196.215 1.112.088 2.16-.381 3.148-.468.985-.5 2.076-.085 3.275.403.682.613 1.388.627 2.116.015.726.028 1.477.043 2.247.014.754.073 1.486.184 2.199a5.366 5.366 0 0 1-.23.598c-.468.985-.499 2.076-.085 3.275.404.683.614 1.389.629 2.117.012.726.027 1.476.042 2.247.009.551.054 1.088.113 1.617-.599.259-1.075.595-1.396 1.028.213 1.11.086 2.16-.382 3.147-.469.984-.499 2.076-.086 3.275.403.682.615 1.388.628 2.116l.042 2.247c.015.77.074 1.519.19 2.246.006.04.025.08.033.12-.042.104-.072.21-.12.314-.468.985-.5 2.076-.087 3.275.405.683.615 1.388.629 2.116l.043 2.247c.015.77.074 1.519.189 2.247.11.725.564 1.388 1.36 1.986 1.183.423 2.369.868 3.553 1.336 1.184.465 2.558.74 4.131.82 1.571.252 3.188.289 4.852.113 1.66-.178 3.272-.355 4.84-.53 1.575.422 3.343.609 5.302.56 1.957-.051 3.82-.122 5.58-.212a31.967 31.967 0 0 1 8.08-.284c2.65.248 5.341.239 8.083-.028 1.964.336 3.876.393 5.737.174 1.856-.221 3.671-.121 5.443.302 1.961.164 3.677.136 5.143-.082 1.466-.219 3.276-.247 5.438-.081 7.634-.456 15.129-.546 22.483-.27 7.354.275 14.948.313 22.784.116 1.756-.436 3.467-.505 5.14-.21 1.67.294 3.484.351 5.443.175 1.56-.263 3.029-.376 4.402-.336a65.78 65.78 0 0 1 4.121.243c1.372.123 2.797.224 4.269.306 1.47.08 2.984.032 4.553-.144a61.233 61.233 0 0 1 6.874-.26c1.324.18 2.68.21 4.069.09 2.085.008 4.117-.08 6.098-.273.368.04.743.071 1.122.098 1.035.14 2.131.205 3.303.176 1.175-.03 2.305-.07 3.41-.115.738.01 1.464.028 2.165.065.607-.136 1.257-.272 1.91-.408a31.623 31.623 0 0 1 6.175-.038c2.65.248 5.342.239 8.084-.027 1.963.335 3.875.392 5.736.173a15.409 15.409 0 0 1 5.445.302c1.958.164 3.676.136 5.142-.082 1.466-.219 3.273-.247 5.436-.081 7.635-.456 15.13-.545 22.485-.27 7.353.275 14.947.313 22.783.117 1.756-.436 3.468-.506 5.14-.21 1.669.293 3.486.35 5.442.174 1.562-.262 3.03-.376 4.404-.336 1.369.037 2.744.12 4.12.243 1.371.123 2.798.224 4.268.306 1.47.08 2.986.032 4.553-.144a62.33 62.33 0 0 1 8.523-.22c2.94.117 5.778.044 8.52-.222a37.92 37.92 0 0 0 5 .176 62.446 62.446 0 0 1 5 .047c1.558-.349 3.264-.697 5.124-1.045 1.853-.35 2.966-.995 3.343-1.937.77-.603.86-1.203.262-1.799-.602-.598-.611-1.154-.032-1.669-.611-1.198-.83-2.309-.652-3.337.174-1.028.35-2.142.527-3.34.574-.689.753-1.396.547-2.121a9.152 9.152 0 0 0-.921-2.115c-.185-.143-.396-.27-.603-.398-.28-.825-.364-1.606-.236-2.344.174-1.028.35-2.142.526-3.34.574-.689.754-1.396.547-2.121-.032-.112-.082-.22-.12-.33.154-.177.286-.363.37-.57.77-.602.859-1.202.26-1.798" opacity=".794"/>
</svg>
