<?xml version="1.0" encoding="UTF-8" standalone="no"?>
<!DOCTYPE svg PUBLIC "-//W3C//DTD SVG 1.1//EN" "http://www.w3.org/Graphics/SVG/1.1/DTD/svg11.dtd">
<svg width="100%" height="100%" viewBox="0 0 17 54" version="1.1" xmlns="http://www.w3.org/2000/svg" xmlns:xlink="http://www.w3.org/1999/xlink" xml:space="preserve" xmlns:serif="http://www.serif.com/" style="fill-rule:evenodd;clip-rule:evenodd;stroke-linejoin:round;stroke-miterlimit:1.41421;">
    <g id="Plan-de-travail1" serif:id="Plan de travail1" transform="matrix(0.11309,0,0,0.27928,-0.848166,-1.53606)">
        <rect x="7.5" y="5.5" width="147.198" height="189.803" style="fill:none;"/>
        <g id="arrowBottom" transform="matrix(8.84255,0,0,3.58063,8.80333,144.014)">
            <path d="M3.096,3.555C2.81,3.832 2.44,3.951 2.118,4.177C2.411,4.261 3.076,3.837 3.096,3.555ZM12.898,0C12.938,0.131 13.035,0.231 13.108,0.345C13.309,0.66 13.516,0.978 13.774,1.247C14.106,1.594 14.525,1.846 14.922,2.12C15.009,2.181 15.026,2.234 14.959,2.314L14.489,2.884C14.179,3.262 13.783,3.554 13.443,3.904C12.917,4.446 12.441,5.029 11.953,5.6C11.415,6.228 10.929,6.897 10.296,7.441C9.969,7.721 9.667,8.036 9.224,8.165C9.079,8.207 8.974,8.345 8.928,8.482C8.897,8.577 9.023,8.642 9.087,8.712C9.157,8.792 9.155,8.854 9.077,8.934C8.622,9.395 8.174,9.865 7.737,10.345C7.567,10.532 7.446,10.755 7.258,10.929C7.158,11.021 7.081,11.027 6.988,10.928C6.885,10.814 6.798,10.686 6.731,10.548C6.584,10.258 6.464,9.94 6.216,9.723C5.943,9.485 5.748,9.191 5.573,8.898C5.267,8.383 4.936,7.892 4.513,7.461C4.216,7.157 3.895,6.876 3.593,6.576C3.285,6.271 3.004,5.941 2.682,5.652C2.204,5.22 1.798,4.724 1.324,4.287C0.87,3.867 0.52,3.34 0.132,2.856C-0.058,2.618 -0.037,2.605 0.156,2.367C0.342,2.139 0.508,1.897 0.808,1.784C0.89,1.753 0.94,1.666 0.973,1.59C1.019,1.476 1.111,1.421 1.208,1.365C1.44,1.23 1.675,1.1 1.897,0.952C1.992,0.889 2.047,0.895 2.118,0.974C2.302,1.175 2.487,1.374 2.673,1.572C2.956,1.872 3.218,2.202 3.607,2.381C4.163,2.638 4.47,3.123 4.822,3.574C5.048,3.866 5.18,4.214 5.446,4.482C5.806,4.844 6.239,5.129 6.547,5.549C6.728,5.794 7.01,5.97 7.246,6.179C7.297,6.223 7.34,6.212 7.394,6.174C7.56,6.059 7.702,5.92 7.812,5.756C7.899,5.619 8.028,5.514 8.181,5.458C8.27,5.425 8.359,5.381 8.411,5.297C8.358,5.222 8.296,5.3 8.234,5.261C8.558,4.843 8.868,4.417 9.242,4.038C9.57,3.705 9.912,3.385 10.173,2.995C10.354,2.726 10.524,2.451 10.736,2.2C11.159,1.695 11.69,1.299 12.126,0.81C12.362,0.542 12.617,0.294 12.822,0L12.898,0Z" style="fill:rgb(244,203,92);"/>
        </g>
        <g id="arrowTop" transform="matrix(8.84255,0,0,3.58063,7.49995,5.50007)">
            <path d="M2.384,7.6C2.699,7.84 3.061,7.968 3.34,8.262C3.32,7.961 2.67,7.512 2.384,7.6ZM12.852,12.037C12.652,11.725 12.402,11.461 12.17,11.178C11.744,10.658 11.225,10.236 10.811,9.701C10.604,9.433 10.438,9.142 10.261,8.856C10.004,8.442 9.671,8.101 9.351,7.749C8.985,7.347 8.681,6.895 8.364,6.45C8.426,6.407 8.486,6.49 8.538,6.412C8.485,6.33 8.406,6.269 8.313,6.239C8.161,6.178 8.033,6.067 7.952,5.925C7.845,5.752 7.706,5.601 7.543,5.48C7.49,5.44 7.45,5.427 7.398,5.476C7.168,5.697 6.894,5.884 6.716,6.144C6.414,6.59 5.99,6.894 5.639,7.278C5.379,7.561 5.249,7.932 5.028,8.24C4.686,8.72 4.384,9.236 3.841,9.509C3.461,9.699 3.204,10.047 2.927,10.369C2.745,10.579 2.564,10.789 2.384,11.003C2.315,11.087 2.261,11.093 2.167,11.025C1.951,10.869 1.721,10.731 1.495,10.588C1.399,10.527 1.31,10.468 1.264,10.348C1.232,10.268 1.183,10.174 1.102,10.142C0.81,10.024 0.649,9.766 0.465,9.523C0.277,9.271 0.256,9.255 0.442,9.003C0.821,8.49 1.163,7.929 1.607,7.485C2.071,7.021 2.467,6.493 2.937,6.035C3.25,5.728 3.527,5.377 3.827,5.054C4.122,4.735 4.436,4.434 4.727,4.111C5.14,3.656 5.463,3.134 5.764,2.588C5.934,2.276 6.126,1.964 6.391,1.711C6.635,1.481 6.751,1.143 6.895,0.835C6.962,0.691 7.042,0.553 7.145,0.431C7.237,0.326 7.313,0.332 7.409,0.43C7.594,0.616 7.713,0.852 7.879,1.051C8.306,1.561 8.745,2.059 9.19,2.55C9.265,2.633 9.269,2.7 9.199,2.785C9.136,2.861 9.013,2.928 9.044,3.028C9.089,3.175 9.191,3.322 9.333,3.366C9.766,3.502 10.062,3.836 10.382,4.135C11,4.712 11.476,5.423 12,6.089C12.479,6.697 12.944,7.316 13.458,7.892C13.791,8.262 14.178,8.572 14.481,8.975L14.943,9.579C15.007,9.665 14.991,9.721 14.903,9.786C14.517,10.076 14.107,10.343 13.783,10.713C13.53,10.999 13.329,11.335 13.131,11.671C13.061,11.791 12.966,11.897 12.926,12.037L12.852,12.037Z" style="fill:rgb(244,203,92);"/>
        </g>
        <g id="circle" transform="matrix(8.84255,0,0,3.58063,16.1827,61.0684)">
            <path d="M7,20C3.134,20 0,16.823 0,12.904L0,7.096C0,3.176 3.134,0 7,0C10.866,0 14,3.177 14,7.096L14,12.904C14,16.824 10.866,20 7,20" style="fill:rgb(244,203,92);"/>
        </g>
    </g>
</svg>
