<svg xmlns="http://www.w3.org/2000/svg" width="21" height="51" viewBox="0 0 21 51">
    <path fill="#F4CB5C" fill-rule="evenodd" d="M11.033 49.242c.021-.034.063-.071.058-.099.005.028-.037.065-.058.099zm-.116-.299zm-4.136.064zm-.09.074zm-.11-.649c-.09-.03-.121-.092-.128-.183.007.09.038.153.128.183.03.105.027.226.071.323-.044-.097-.042-.218-.071-.323zm-1.365-.787l-.194-.11.194.11.268.03-.268-.03zm-1.597-1.927c-.116-.046-.173-.153-.244-.247l-.105-.06c-.087.084-.199.12-.295.085.096.034.208 0 .295-.085l.105.06c.07.094.128.201.244.247zM1.25 45.08c.045.236.084.474.144.707-.06-.233-.1-.47-.144-.707zm-.146-.934l.071.211c-.024-.07-.048-.14-.07-.211zm1.34-4.858a.623.623 0 0 1 0 0zM4.51 25.374c.096.256.192.512.363.727-.171-.215-.267-.47-.363-.727zm1.494-8.131a.356.356 0 0 0 0 0zM7.655 13.6zm1.132-1.332c.085-.01.113-.042.08-.097.033.055.005.087-.08.097zm4.779-8.186zm4.537.812zm-.428 2.222zm-.768 12.715zm.192-.381c-.024-.017-.05-.044-.073-.055.023.01.049.038.073.055zm.009.432zm.29.056c-.097-.018-.192-.038-.289-.054.097.016.192.036.289.054zm2.6-4.677c.004-.04 0-.081-.036-.117.035.036.04.076.036.117zm.48 4.07zm.08 1.482l-.417-.067.416.067c.413-.456.084-.97.124-1.456-.04.485.29 1-.124 1.456zm-1.945 7.616l.121-.074-.121.074zm.092.772a.992.992 0 0 1 0 0zm-2.157 9.056zm.067 6.092zm.115-.216c.016-.022.03-.046.048-.068-.018.022-.032.046-.048.068zm-.367 1.392zm.003.013zm-.355-3.151zm-.049-.175zm-.467-10.188l.933.119-.933-.119zm-1.894 10.807l.032-.11.044-.273.064-.41-.064.41-.044.273-.032.11zm-3.392 5.813l.185.063.1.098-.1-.098-.185-.063zm-1.432.829c-.032-.022-.07-.065-.096-.06.027-.005.064.038.096.06zm-1.026-5.737l.024-.072-.024.073-.12.012.12-.013zm-2.765 4.17zm-1.784-3.262c-.027.155.06.292.085.439-.025-.147-.112-.284-.085-.439.07-.17.18-.256.333-.24-.154-.016-.262.07-.333.24zm-.09.264a.462.462 0 0 1 0 0zm.311-9.776l-.014.023.014-.023zm2.42-6.498l1.198.208.088.091-.088-.09-1.198-.21-.82-.255.82.256zm.084-10.868c-.04.037-.1.069-.158.101.059-.032.119-.064.158-.101zm2.751-5.37zm-.039.014zm5.175-6.524l-.196-.046.196.046zm.526-1.756l1.147.11c.27.062.545.108.818.157-.273-.049-.547-.095-.818-.157l-1.147-.11c-.197-.063-.415-.036-.622-.052.207.016.425-.01.622.052zm2.103-.877zm.776 12.893a7.507 7.507 0 0 0-.03-.812c-.05-.326-.06-.66-.114-.985a2.795 2.795 0 0 1 0 0c.054.326.063.659.113.985a7.507 7.507 0 0 1 .031.812zm-.26-1.975l.08 1.272-.08-1.272zm-.71 5.733l-.417-.013c.139.005.278.01.417.013zm2.694 2.677l-.607.352c-.084-.303-.11-.62-.172-.929.062.31.088.626.172.929l.607-.352zm1.168-6.688c-.024-.036-.024-.075-.02-.114-.004.04-.004.078.02.114zm.006.033c.078.048.088.099.082.15.006-.051-.004-.102-.082-.15zm-.153 4.9zm-.808 2.793l.434-.428-.434.428zm-3.65 16.585zm.044-.32zm.09.356zm2.142-11.072zm-1.007-.088zm-.186.002l-.034-.001h.034zm-1.55-.042zm.412 3.941c.202-.02.368.108.546.19-.178-.082-.344-.21-.546-.19zm-1.898 10.012l.01-.076-.01.076c.083.06.096.138.092.224.004-.086-.009-.164-.092-.224zm-3.01 5.623l-.124.089.124-.089zm-.284-3.434c-.043-.27-.022-.56-.13-.812.108.251.087.541.13.812zm-4.694-.254c.044.168.176.204.378.134l.135.018-.135-.018c-.202.07-.334.034-.378-.134zm-.619 1.759c.051.009.1.012.132-.032-.031.044-.081.04-.132.032zm-.1.076c.144.025.158.127.136.249l-.01.072.01-.072c.022-.122.008-.224-.136-.25zm-.234-.137c.052.057.128.101.2.147l.037-.135c.03 0 .067.007.103.014-.036-.007-.073-.015-.103-.014l-.037.135.003-.001-.003.001c-.072-.046-.148-.09-.2-.147zm-.664-1.457zm-.606-1.239c-.033-.066-.076-.117-.138-.135.062.018.105.07.138.135zm.532-.441c-.09.074-.183.08-.287.06.104.02.197.014.287-.06zm-.124-.08a33.173 33.173 0 0 0 0 0zm2.286-13.078l-.18-.072.18.071zm3.841-1.316l3.304.026-3.304-.026-.026-.002.026.002zm-2.88-1.374zm.558-9.59l-.096-.065.096.066zm.25.397zm1.616.187l.174.037-.174-.037c-.29-.06-.58-.109-.884-.069l-.128-.002.127.002c.304-.04.596.01.885.07zm4.02-9.032c.543.096 1.082.208 1.624.302-.542-.094-1.081-.206-1.623-.302zm3.02 1.731c.093-.049.25-.052.172-.223.077.171-.079.174-.172.223zm.215 1.067c.126-.136.192-.255.199-.374a.451.451 0 0 0-.006-.09c.005.031.007.06.006.09-.007.12-.073.238-.199.374zm.13.056c.068.05.077.115.076.182.001-.067-.008-.133-.076-.182zm-.4 4.942zm-2.173 2.167l1.48.23-1.48-.23zm4.858 3.081zm1.07-6.504zm-.314 4.823c.013-.073.06-.128.138-.167-.079.039-.125.094-.138.167zm-.147.958c-.055.362-.044.729-.134 1.083l.085-.034-.085.034c.09-.354.079-.72.134-1.083zm-.658 1.3zm.094.774zm-2.882 4.82c-.067.023-.134.043-.2.064.066-.021.133-.04.2-.063zm-.322.03zM14.853 31.9zm-.157-.05a1.584 1.584 0 0 0-.497.012c-.178-.03-.356-.058-.534-.086l.534.085c.17-.032.335-.03.497-.01zm.705 1.263zm-.04-.019zm-2.942 12.884zm.009-.001zm-.062-.103c-.04.03-.057.068-.031.124-.026-.057-.008-.095.03-.124zm-.87-.62c.017.066.069.126.176.174l-.024.137.024-.137c-.107-.048-.16-.108-.177-.173zm-.43.572c.132-.02.268-.028.363-.154-.095.126-.23.134-.362.154zM9.81 44.32zm-.01-.016zm-1.583-3.456c.045-.326.042-.661.25-.953l.05-.264-.05.264c-.208.292-.205.627-.25.953zm-2.643 3.827l.001.012v-.012zm-.76.895zm.032.307a.511.511 0 0 1 .025.196c.165.024.217.116.232.224-.015-.108-.067-.2-.232-.224a.51.51 0 0 0-.025-.196zm-.53-.547zm.156-1.696c.083-.107.111-.086.12-.017-.009-.069-.037-.09-.12.017zm-1.023-2.56c.084-.286.22-.55.353-.813-.133.264-.268.527-.353.813-.022.008-.05.027-.064.02.013.007.042-.012.064-.02zm.913-3.115c-.071.45-.202.629-.47.582.268.047.399-.133.47-.582zm1.33-7.733c-.029-.013-.058-.026-.085-.042.027.016.056.03.085.042zm.004.194l-.067-.088c-.048-.021-.083-.051-.096-.097.013.046.048.076.096.097l.067.088zm-.179.198c-.015.05.012.091.086.125-.074-.034-.1-.075-.086-.125zm7.58.988zm1.32.849l.023.008-.022-.008zm.585.067zm.047-.006zM11.12 45.64zm-1.435-1.563l-.084.03.084-.03zm-.97-4.55l-.006.025.006-.024zm-.191.102H8.52h.003c-.082-.066-.087-.13-.074-.194-.013.063-.008.128.074.194zm1.017-6.408zm-.328-.076zM5.646 44.773zm-.911-.143c-.002-.125.007-.251-.008-.374.015.123.006.249.008.374.117.065.11.15.06.227.05-.076.057-.162-.06-.227zm-.558.036zm.45-.996zm.033-5.22c-.105-.094-.07-.206-.046-.313-.023.107-.06.219.046.312-.202.089-.192.313-.277.477.085-.164.075-.388.277-.477zm-.355.577c.155-.731.38-1.448.453-2.196-.016-.493.046-.98.126-1.465-.08.485-.142.972-.126 1.465-.072.748-.298 1.465-.453 2.196zm-.155-.868zM5.5 31.097zm1.621-.156a.209.209 0 0 0 0 0c.092.024.205.007.256.11.398.067.79.165 1.196.188-.406-.023-.798-.12-1.196-.189-.051-.102-.164-.085-.256-.109zm1.624 3.397l.022-.136-.022.136c.1.255.238.492.248.775-.01-.283-.149-.52-.248-.775zm-.821 5.318l.015-.072-.043-.148.043.148-.015.072zm-1.055-.214zm-2.06-1.182l.165-.436-.165.436-.057.205c.02-.068.038-.137.057-.205zm4.455-6.705zm-.179.878l.046-.361-.045.361zm-.51 1.757c.024.028.081.012.12.021-.038-.009-.096.007-.12-.02zm-.028 1.442l-.008-.063.008.063zm.102.216c.02-.074.062-.153-.054-.22.116.067.073.146.054.22zm-.235 1.572c-.05.084 0 .24-.104.286.104-.045.053-.202.104-.286l.232.043-.232-.043zm-.41 1.904zm.013-.547zm-1.331.626zm-1.184-.156zm-.6-.675l.166.028.01-.002-.027.162.026-.162-.009.002-.166-.028c-.058.038-.094.043-.116.027.022.016.058.011.116-.027zm3.473-6.779l-1.096-.147v0l1.096.147zm-.043 4.818c-.1-.088-.217-.15-.334-.21-.059-.03-.118-.061-.176-.094.058.033.117.063.176.094.117.06.234.122.334.21zm.057-.094zm-3.08 1.602c-.019.166-.037.333-.054.5l.053-.5zm2.477-6.288c.154-.08.292.063.444.016-.152.047-.29-.095-.444-.016zm-1.766 5.364c.243-.418.365-.867.45-1.326-.085.459-.207.908-.45 1.326l-.144.172.144-.172zm.985-3.443l-.198.604c.12.098.073.186.052.275.021-.09.068-.177-.053-.275l.199-.604zm-.196.961l-.142.826.142-.826c.127.002.21-.047.268-.14-.058.093-.141.142-.268.14zm.302-1.184c.071-.165.063-.345.003-.536l.102-.54-.102.54c.06.19.069.371-.003.536zm-.152-.145l.071-.406-.07.406c-.226.02-.123.264-.215.379.092-.115-.01-.359.214-.38zm.308-1.647l.193.07c.104-.06.2-.063.291-.019-.09-.044-.187-.04-.29.019l-.194-.07zm2-.14c-.017.06-.072.104-.085.166-.2.046-.403-.083-.604-.063.2-.02.404.109.604.062.013-.06.068-.105.085-.165zM6.39 39.554a.185.185 0 0 0 0 0zm.015-.06a.404.404 0 0 0-.002-.171l-.089-.017.089.017c.011.072.014.13.002.17zm2.45-6.133l.161-.955-.16.955c.147.263.055.502-.046.739.101-.237.193-.476.046-.739zm.381-1.873c-.514-.184-1.067-.128-1.6-.202.533.074 1.086.018 1.6.202zM4.83 36.852l.074-1.133.016-.104-.016.104-.074 1.133zm7.725-5.44zm-.208.05c.069-.077.139-.087.206-.075-.067-.012-.137-.002-.206.074zm2.038 1.465zm.102-.298a.341.341 0 0 0 0 0zm.21.21c.031-.036.07-.045.115-.032-.045-.013-.084-.004-.115.031zm-1.18 8.675a.67.67 0 0 0 .053-.28c-.09-.054-.235-.012-.315-.088.08.076.224.033.315.089a.673.673 0 0 1-.053.279zM11.9 45.329c-.015.067-.048.104-.101.112.053-.008.086-.045.1-.112zM9.705 31.557c.12-.123.246-.066.366-.034-.12-.032-.247-.088-.366.034zm2.263.902l1.667.172-1.667-.172zm2.107 1.837l-.285 1.002.285-1.002zm-1.66 7.276c-.063.055-.097.152-.165.2l-.017.132c.214.124.215.3.184.485.031-.184.03-.36-.184-.485l.017-.133c.068-.047.102-.144.164-.2zm-.23-.194zm-.162-.711c.086.084.036.186.033.283.126.068.118.177.112.286.006-.109.014-.218-.113-.286.004-.097.054-.199-.032-.283zm-.09.017zm-1.01-.627c.04-.03.068-.042.089-.04-.02-.002-.049.01-.089.04zm-.594-.205a.542.542 0 0 1 0 0zm2.614-7.108a.448.448 0 0 0 0 0zm.305 1.879a3.6 3.6 0 0 1-.17.485.287.287 0 0 1-.012.111l-.012.044.012-.044a.287.287 0 0 0 .013-.111 3.6 3.6 0 0 0 .169-.485zm.108-.5l.056-.249-.056.25zm.602-1.282zm-.754 3.987l.128-.666c.081-.369.251-.707.358-1.068-.107.361-.277.7-.358 1.068l-.128.666zm.265 2.892c.04-.296.1-.59.096-.92.005.33-.056.624-.096.92zm-.555 2.113c.015-.255-.022-.493-.003-.726-.056-.113-.01-.149.05-.173-.06.024-.106.06-.05.173-.019.233.018.47.003.726zm-.373-.869c.091.031.105.093.098.162.007-.07-.007-.13-.098-.162zm-.472-.91zm-1.027.088zm.436-3.217c.125-.247.25-.493.31-.767-.06.274-.185.52-.31.767zm-.122.248zm.088-.815c-.013.036-.025.072-.04.107.015-.035.027-.071.04-.107zm.135-.308zm2.287-2.966l.034-.024-.034.024zm-.682 4.246l.108.017a69.014 69.014 0 0 0-.108-.017l-.294 1.222-.022.09.022-.09.294-1.222zm-.248 2.174l-.02.085.02-.085zm.18-1.018zm-.509 1.365l-.042.202.042-.202.043.006-.043-.006zm.189-1.034l-.02.107.02-.107zm-.144 1.107c.159-.203.097-.468.192-.69l.102-.592c.087-.01.12-.06.137-.12-.017.06-.05.11-.137.12l-.102.593c-.095.22-.033.487-.192.69zm.086 1.595l-.02-.238a6.273 6.273 0 0 0 0 0l.02.238zm.37-.636l-.06-.012.06.012.044.01-.043-.01zm-.111.073zm-.033-.125zm.924-7.364zm-.827 1.917zm-1.734.266c-.03-.029-.044-.055-.04-.078-.004.023.01.049.04.078l-.024.137.024-.137zm1.147 7.178l-.108-.043.108.043.04-.137c.262-.374.074-.768.057-1.154l.049-.273-.049.273c.017.386.205.78-.056 1.154l-.041.137c.03.156.154.178.266.2-.112-.022-.235-.044-.266-.2zM9.66 31.644c-.002.028.021.06.062.095-.04-.035-.064-.067-.062-.095zm.025 1.682a14.202 14.202 0 0 0 .077-.938 14.202 14.202 0 0 1-.078.939zm-.418 1.996zM12.53 45.36c-.012-.013-.023-.026-.037-.038.014.012.025.025.037.038zm.014.02l-.016-.023.016.022zm-.102-.11l.521-.19c.202-.352.276-.746.372-1.133-.096.387-.17.781-.371 1.134l-.522.189zm-4.14-17.19zm-.798-2.83l-.108-.001.108.002zm-1.657-.276zm3.872-6.711l-.114.03.114-.03zm1.29-.11c-.365-.085-.743-.09-1.116-.126l-.029.124c.463.129.9.341 1.368.452-.468-.11-.905-.323-1.368-.452l.029-.124c.373.035.75.04 1.117.126zm-.339-.396c.305.097.6.23.925.245l.173-.927c-.03-.125-.068-.25.012-.337-.08.086-.043.212-.012.337l-.173.928c-.326-.015-.62-.149-.925-.246zm1.207-4.737l-.01-.013.01.013zm.367-1.355zm.99-1.558a.473.473 0 0 1 0 0zm.613 8.571c-.217-.118-.447-.186-.687-.132.24-.054.47.014.687.132.28-.065.544-.022.805.038-.261-.06-.525-.103-.805-.038zm.267 3.734zm2.255-.312zm1.913 1.979zm.228-.141c-.094-.051-.152-.005-.2.065.048-.07.106-.116.2-.065zm-.122 1.14zm.062.034zm.16.386l.222-.356-.222.356zm-.252 1.602c.098.198.08.342-.033.444.113-.102.131-.246.033-.444zm-.155.565zm-3.843-.896zm-.81-3.204c.036.06.037.086.019.093.018-.007.017-.033-.018-.093zm.434-.424l.041-.034-.04.034zm-.166.151l.072-.068-.072.068zm.338-.29l.017-.013-.017.013zm.599-.419zm.681-.277zm-2.085 3.512l.095-.07-.095.07zm-.287-.52l-.003-.001h.003zm1.255 2.758zm3.881-3.568zm.064.463zm.01.027a1.033 1.033 0 0 0 0 0zm.285.6zm-6.84.685zM7.163 21.61zm.07-.194zm5.367-7.885l.254-.58-.254.58-.013.124.013-.124zm-.373-.174l-.045-.03.045.03zm.157-1.81zm.528-.89l.017-.046a7.66 7.66 0 0 0-.017.046zm-.126.198c-.031.157-.023.324.062.43-.085-.106-.093-.273-.062-.43zm-.211.02zm-.029.078a.25.25 0 0 0 .045.168c-.02.022-.03.05-.04.077.01-.027.02-.055.04-.077a.25.25 0 0 1-.045-.168zm-.099.365c.07-.018.097-.052.114-.09-.017.038-.044.072-.114.09zm-.171 6.843c-.017.035-.056.06-.09.086a.351.351 0 0 1 0 0c.034-.026.073-.05.09-.086.193.006.388.005.581.014-.193-.009-.388-.008-.581-.014zm-.178.612l.262.023-.262-.023zm-2.205 4.076zm3.193-9.586c-.052.056-.107.1-.171.078.064.022.119-.022.171-.078zm.512-1.075a.082.082 0 0 0-.026-.044c-.027-.023-.075-.038-.151-.041.076.003.124.018.15.041a.082.082 0 0 1 .027.044zm-1.104 4.82c.062-.042.045-.097-.049-.168l.3-1.082-.3 1.082c.094.07.11.126.049.168zm.695-2.943c.045-.063.041-.135-.004-.217l.173-.676a.17.17 0 0 1 0 0l-.173.676c.045.082.05.154.004.217zm-.833 1.136zm.995-3.096l.079.006-.079-.006c-.01-.045.009-.087.017-.134-.008.047-.028.09-.017.134zm-.716 1.644c-.28.555-.477 1.132-.46 1.765l-.039.2.04-.2c-.018-.633.179-1.21.459-1.765zM7.056 21.67l.045-.032-.045.032zm.004.867zm.258-.301zm1.515 2.748c.668.078 1.276.338 1.78.917-.504-.58-1.112-.839-1.78-.917zm-2.022.756c.032-.202.089-.395.326-.496-.237.101-.294.294-.326.496zm5.872.66zm1.579-6.318zm-.34 1.92zm2.267-8.257c-.038-.013-.068-.046-.09-.109.022.063.052.096.09.109zm.35-1.359c-.052-.018-.09-.01-.117.013.027-.024.065-.031.118-.013.027.042.05.114.09.087-.04.027-.063-.045-.09-.087zm.007 1.267c.018.067.049.103.088.12-.04-.017-.07-.053-.088-.12zm.289.244zM7.25 20.809c-.013-.043-.06-.074-.078-.116.018.042.065.073.078.116l-.588.469.588-.469zm3.644 25.066l-.11-.169c-.123-.043-.185-.138-.216-.262l.252.055-.252-.055c.03.124.093.22.217.262l.109.17c.098.25.24.172.38.104-.14.068-.282.147-.38-.105zm7.248-17.377c.093-.054.203-.033.306-.042-.103.01-.213-.012-.306.042zm1.993-12.653zm-3.274-1.419l.032-.2-.086-.312c-.005-.014-.011-.028-.014-.043.003.015.01.029.014.043l.086.311-.032.201zm.38-.923c-.01-.103-.006-.209-.033-.32.027.111.023.217.033.32zm.023.749zm-1.716-7.67c.022.036.042.094.066.122-.024-.028-.044-.085-.066-.122zm1.869.008a.211.211 0 0 1-.116.039l.004.008c0-.003-.002-.005-.004-.008a.211.211 0 0 0 .116-.04zm-.028.108c.03.04.06.08.087.122-.027-.042-.057-.082-.087-.122zm-2.515-.499c-.095-.024-.192-.034-.294.057.102-.09.199-.081.294-.057zm-.584.035c-.056.007-.123-.05-.18.02.057-.07.124-.013.18-.02zm.44-1.865zm-.409 1.962l.689.121c-.009.052-.025.084-.047.103.022-.019.038-.05.046-.102l-.688-.122zm-6.207 6.696l-.124.088.124-.088zm-.187.196zM5.221 25.495zm.242 4.689l-1.131-.218 1.131.218zM3.65 44.43c-.023.218.123.38.206.564-.083-.183-.229-.346-.206-.564zm13.001-5.71l.008.033-.008-.033zm-.482 2.214zm-.053 1.875zm.05.043zm.01.11l.034.115-.033-.114zm.066-2.709l.004.091-.004-.09zm.026.31zm1.874-8.347a.572.572 0 0 0 .105.188l.124.038-.124-.038-.4-.065.4.065a.572.572 0 0 1-.105-.188zm1.968-16.405l-.068-.122.068.122zm-.143-.542l.06.12-.06-.12zm-10.3-1.858l-.023.006.023-.006zm-2.202.48zM2.506 39.239zm.483 5.623c.03-.091.04-.18-.056-.264.095.084.086.173.056.264zm-.06.145a.595.595 0 0 1 .015-.041l.035-.084c-.01.028-.024.056-.035.084a.595.595 0 0 0-.015.041zm1.88 2.182c-.145-.172-.295-.34-.443-.51.148.17.298.338.443.51a.432.432 0 0 1 0 0zm.649.034c.084.175.237.323.217.54.075.023.152.045.226.072-.074-.027-.15-.049-.226-.072.02-.217-.133-.365-.217-.54zm5.432 1.407l-.197.023.197-.023.005-.006-.005.006zm5.5-2.934c-.02.067-.04.134-.062.2l.062-.2.068.01.113-.406c.152-.183.176-.393.128-.618a.531.531 0 0 1-.062-.008l-.113.541.113-.54c.02.003.041.006.062.007l.11-.618c.107-.112.134-.232.038-.363a578.34 578.34 0 0 0-.004-.199c.073-.31.012-.584-.205-.815a.078.078 0 0 1-.017-.049.5.5 0 0 0-.14-.487l-.04-.174c.065-.082.045-.144-.039-.192l-.055-.388c.183.065.14-.051.133-.161-.056-.825.055-1.635.214-2.442.04-.204.182-.407.054-.627l.095-.263c.075-.026.104-.067.045-.138a1.857 1.857 0 0 0-.059-.007l-.045.133.045-.133.06.007.092-.264c.08-.023.11-.064.047-.137l.067-.187a158.71 158.71 0 0 1-.033-.094l.043-.128c.021.002.043.005.064.009l.087-.253c.07-.032.114-.072.05-.15l.086-.252c.076-.028.12-.068.053-.148l.09-.251c.076-.03.12-.07.051-.15l.095-.266c.076-.024.096-.068.044-.135l.09-.252c.07-.03.12-.069.05-.149l.092-.251c.068-.031.117-.07.051-.149.136-.378.225-.783.42-1.126.18-.319.285-.611.187-.965.14-.25.134-.534.18-.803.124-.752.307-1.494.376-2.255a1.87 1.87 0 0 0 .207-1.171l-.666.11.666-.11c.024-.064.06-.126.071-.193.413-2.305.823-4.61 1.233-6.916.016-.09.05-.182-.007-.27.036-.241.313-.41.242-.671-.143-.53-.022-1.064-.045-1.594-.051-1.189-.185-2.358-.68-3.45l-.02-.062c.02-.038.014-.066-.028-.08l-.057-.149-.033-.091c.007-.025 0-.045-.021-.06.015-.036.004-.062-.032-.075-.338-.92-.729-1.818-1.043-2.748-.206-.611-.325-1.25-.578-1.845.014-.39-.187-.722-.268-1.085-.135-.605-.224-1.222-.333-1.834l.06-.687a.318.318 0 0 0 0 0l.036-.159-.008-.022c.169-.24.283-.486.107-.772.217-.128.436.088.719-.004-.235-.167-.557-.164-.568-.496.427.024.523-.086.513-.591.031-.251.04-.508.098-.753.15-.624.234-1.257.298-1.893.028-.275-.055-.473-.355-.573a15.552 15.552 0 0 0-4.09-.765c-.692-.037-.797.066-.896.773l-.122.613a3.815 3.815 0 0 0-.151.898c-.099.343-.199.684-.295 1.027-.021.078-.094.184.067.2.02.161.166.222.265.314-.189.223-.551-.05-.678.284.054.066.11.051.166.045.146-.017.375-.053.408.057.054.178-.032.396.05.59-.352.13-.185.466-.272.702a.245.245 0 0 0 .123-.01c.04-.013.078-.032.118-.049-.04.017-.079.036-.118.048a.245.245 0 0 1-.123.011c.081.175-.11.306-.079.472-.249.204-.28.54-.46.792-.362.505-.717 1.02-1.003 1.577l-1.79 2.312-.047.053-.123.137c-.034 0-.057.011-.054.052l-.016-.008-.007.016c-.075-.02-.127.008-.16.078-.175.133-.392.226-.442.48l-.014.01c-.139-.04-.16.09-.22.162a.355.355 0 0 0-.172.182l-.107.102-.385.445-.162.188c-.366.412-.657.879-.933 1.356l-.029.06-.072.135c-.523.877-.927 1.81-1.238 2.784-.02.06-.014.114.06.132-.103.066-.129.166-.116.28l-.003-.004c-.136.143.025.276.01.413-.077.096-.083.215-.104.328-.162.88-.333 1.757-.482 2.639-.22 1.292-.532 2.569-.648 3.878a.605.605 0 0 0-.137.274c-.112.684-.228 1.366-.342 2.05-.116.814-.33 1.613-.402 2.434-.183.253-.231.547-.228.847.007.582-.045 1.165.026 1.748.043.35-.048.712-.001 1.069l-.013.274.001.148c-.018.44-.04.879-.054 1.318-.035 1.032-.066 2.061-.435 3.05-.252.674-.587 1.287-1.077 1.809-.216.22-.342.492-.412.787-.342 1.455-.547 2.912-.153 4.39.166.622.268 1.263.566 1.84.107.316.253.61.462.869l.06.074.066.083c.008.06.042.095.096.113.558.629 1.46.785 2.298.399l.077-.07c.265.002.536.042.794-.002.492-.085.832.02.918.582.006.035.059.062.09.094a.262.262 0 0 1 .052-.04l.08-.043-.08.043a.258.258 0 0 0-.052.04c.198.209.303.54.665.535l.125.037c.306.13.623.199.957.164l.027.01.027-.01c.334.037.62-.05.827-.343.148.012.227-.106.293-.202.136-.2.263-.213.47-.1.274.15.562.288.89.275l.114.077c.124.087.259.163.37.264.82.743 1.85.633 2.657-.087a.22.22 0 0 0 .15-.138l.101-.097a.207.207 0 0 0 .144-.146l.002-.003c.09-.087.183-.169.266-.26.839-.924 1.373-2.025 1.777-3.2.095-.046.123-.112.06-.206l-.067-.009z"/>
</svg>
