<svg xmlns="http://www.w3.org/2000/svg" width="49" height="47" viewBox="0 0 49 47">
    <path fill="#6B739A" fill-rule="evenodd" d="M29.4 19.27h.736c.16 0 .244-.043.244-.135a.625.625 0 0 0-.612-.205c-.245.047-.368.16-.368.34zm.75-8.989l-.52-.136v.272l.52-.136zm-.75 30.312c.372.363.931.5 1.68.408.184 0 .28-.136.28-.408-.187-.182-.56-.294-1.12-.341-.56-.045-.84.067-.84.34zm.49-24.903c-.329.08-.49.28-.49.598 0 .238.405.358 1.225.358.489 0 .735-.199.735-.598-.655-.317-1.146-.437-1.47-.358zm-1.22 21.068c0 .272.343.408 1.026.408.453-.089.684-.272.684-.545 0-.272-.4-.385-1.197-.34-.8.047-.971.205-.513.477zm.31-24.984c-.376.085-.56.252-.56.504.371.422.84.548 1.4.378.372 0 .51-.04.42-.126-.096-.082-.048-.208.14-.378-.377-.334-.84-.46-1.4-.378zM27.67 32.87h.52v-.136h-.52v.136zm-.115-24.547c0 .184.19.273.577.273.19-.09.288-.227.288-.409a1.7 1.7 0 0 0-.72-.137c-.288 0-.338.092-.145.273zM25.9 24.697c-.56.09-.56.272 0 .544.373 0 .56-.136.56-.408-.187 0-.28-.022-.28-.069 0-.044-.097-.067-.28-.067zm-.937-2.96c0 .175-.12.326-.346.457-.232.13-.119.24.346.327.46 0 .805-.043 1.037-.13.46-.348.574-.61.346-.785-.465-.086-.75-.086-.864 0-.12.087-.291.13-.519.13zM24.5 37.382c.258.183.326.32.197.409-.134.092.061.183.589.273.258.09.52.09.784 0 .52-.181.52-.386 0-.613a2.099 2.099 0 0 0-1.57-.069zm0-18.153c.65 0 .98-.044.98-.136l-.98-.136v.272zm.392-6.432c-.263.082-.392.285-.392.607 0 .081.13.163.392.243.257.08.522.08.785 0 .52-.08.783-.243.783-.486 0-.403-.526-.525-1.568-.364zm.718 9.872c-1.187.183-1.42.409-.71.681h.71c0-.181.178-.272.533-.272.354 0 .41-.09.176-.273 0-.09-.121-.113-.354-.068-.238.046-.355.023-.355-.068zm-3.07-7.406c0 .092.215.137.654.137 0-.09.05-.137.164-.137.108 0 .162-.044.162-.136-.653-.272-.98-.225-.98.136zm-.864-2.911c.189.092.381.136.576.136.19-.089.288-.225.288-.408-.193-.09-.432-.114-.72-.069-.288.047-.338.16-.144.341zm.098 16.6c0 .183.387.273 1.165.273.386-.181.581-.317.581-.41-.195-.18-.632-.271-1.309-.271-.683 0-.829.136-.437.408zm1.692-9.37c-.91.15-1.454.277-1.633.377-.184.05-.273.202-.273.452a8.174 8.174 0 0 1 2.586-.037c.817.125 1.587.188 2.314.188v-.151c-.91-.1-1.408-.25-1.497-.452-.093-.2-.591-.326-1.497-.377zM19.6 35.83c.434.183.76.272.98.272.654-.089.98-.272.98-.545a2.202 2.202 0 0 0-1.307-.135c-.44.09-.653.227-.653.408zm0-24.497c.535.273 1.07.365 1.605.273.355-.18.443-.362.267-.545-.359-.18-.76-.225-1.203-.136-.448.091-.669.227-.669.408zm-.852-1.364c0 .09-.035.223-.106.4-.073.18.033.314.32.402.282 0 .426-.067.426-.2 0-.134.07-.289.212-.468a1.176 1.176 0 0 1-.32-.267c-.072-.089-.248-.044-.532.133zM16.835.174c2.875.053 5.55.104 8.016.155 2.467.053 5.136 0 8.016-.155 1.234.155 2.568.155 4.008 0a17.284 17.284 0 0 1 4.318.078c2.258.104 3.8.401 4.624.891.82.493 1.642.945 2.466 1.357-.206.415-.26.854-.155 1.319.102.465-.051.905-.46 1.318.615.724.77 1.473.46 2.248-.307.776-.153 1.526.463 2.25.409.413.51.814.308 1.201-.207.388-.46.764-.771 1.124-.307.363-.514.725-.616 1.086-.105.362.156.75.771 1.163.41.518.256.996-.462 1.435-.723.44-.569.891.462 1.357.41 2.068.256 4.07-.462 6.01-.723 1.938-.569 3.915.462 5.931-.414.57-.361 1.047.155 1.435.51.387.562.84.153 1.356-1.03.466-1.285.944-.77 1.435.51.492.356.996-.464 1.512.618.725.618 1.435 0 2.132-.615.698-.413 1.41.618 2.133.202.465.356.957.463 1.473.101.517-.361.982-1.388 1.396.409.414.82.84 1.233 1.28.41.439.308.865-.308 1.278-.207.415-.877.776-2.004 1.086-1.132.31-2.21.62-3.238.931-1.44.207-3.034.323-4.777.349-1.75.026-3.546.038-5.397.038h-5.395c-1.75 0-3.446.053-5.088.155-2.88.104-5.5.09-7.861-.038a103.238 103.238 0 0 0-7.553-.117c-1.851-.155-3.036-.426-3.546-.814-.516-.387-1.186-.762-2.004-1.124 0-.569.048-1.124.154-1.667.1-.543-.154-1.098-.771-1.668-.207-1.24-.154-2.415.154-3.527s.255-2.288-.154-3.529c.82-.258.973-.49.462-.697-.514-.207-.669-.44-.462-.698 0-.413.049-.801.154-1.164.102-.36.356-.697.771-1.007-.617-.31-.876-.633-.77-.97.1-.335.202-.67.307-1.008a3.59 3.59 0 0 0 .155-1.046c0-.361-.31-.698-.925-1.009.408-.878.564-1.744.462-2.597-.105-.853.048-1.745.463-2.676-.415-.568-.568-1.15-.463-1.744.102-.594-.054-1.15-.462-1.667-.207-.776-.106-1.538.308-2.288.409-.749.308-1.485-.308-2.21.202-.36.202-.775 0-1.24 0-.516-.054-1.06-.155-1.628-.106-.569.05-1.112.463-1.63l.308-6.512c.41-.466 1.026-.917 1.85-1.357.82-.44 2.158-.788 4.009-1.047C8.304.15 10 .072 11.748.02c1.744-.051 3.44 0 5.087.155z" style="mix-blend-mode:difference"/>
</svg>
