<?xml version="1.0" encoding="utf-8"?>
<!-- Generator: Adobe Illustrator 21.1.0, SVG Export Plug-In . SVG Version: 6.00 Build 0)  -->
<svg version="1.1" id="Calque_1" xmlns="http://www.w3.org/2000/svg" xmlns:xlink="http://www.w3.org/1999/xlink" x="0px" y="0px"
	 viewBox="0 0 682 343" style="enable-background:new 0 0 682 343;" xml:space="preserve">
<style type="text/css">
	.st0{fill:none;stroke:#F4CB5C;stroke-width:4;}
</style>
<path class="st0" d="M275.3,340.2c2,0.6,4.1,0.8,6.2,0.6c2.1-0.2,4.1-0.5,6.2-1c0.2-0.1,0.4-0.2,0.7-0.4c2.7-0.4,5.3-0.5,7.7-0.4
	c3,0.2,6.3,0.4,9.8,0.6c2,0.6,4.1,0.8,6.2,0.6c1.4-0.2,2.9-0.4,4.3-0.6c0.2,0.1,0.3,0.1,0.5,0.2c3.5-0.7,6.8-0.9,9.8-0.7
	c3,0.2,6.3,0.4,9.8,0.6c2,0.6,4.1,0.8,6.2,0.6c2.1-0.2,4.1-0.5,6.2-1c0.5-0.2,1-0.5,1.5-0.8c2.4-0.3,4.7-0.4,6.8-0.3
	c3,0.2,6.3,0.4,9.8,0.6c2,0.6,4.1,0.8,6.2,0.6c2.1-0.2,4.1-0.5,6.2-1c0.4-0.2,0.8-0.4,1.2-0.6c2.4-0.3,4.7-0.4,6.9-0.3
	c3,0.2,6.3,0.4,9.8,0.6c2,0.6,4.1,0.8,6.2,0.6c0.3,0,0.6-0.1,0.9-0.1c0.5,0.2,1.1,0.3,1.7,0.4c1.8,0.8,3.5,0.9,5.3,0.3
	c1.8-0.6,3.4-0.7,4.9,0c3.5-0.7,6.8-0.9,9.8-0.7c3,0.2,6.3,0.4,9.8,0.5c2,0.6,4.1,0.8,6.2,0.6c2.1-0.2,4.1-0.5,6.2-1
	c0.2-0.1,0.4-0.2,0.7-0.4c2.7-0.4,5.3-0.5,7.7-0.4c3,0.2,6.3,0.4,9.8,0.6c2,0.6,4.1,0.8,6.2,0.6c1.4-0.2,2.9-0.4,4.3-0.6
	c0.2,0.1,0.3,0.1,0.5,0.2c3.5-0.7,6.8-0.9,9.8-0.7c2.9,0.2,6,0.4,9.3,0.5c1.1,0.9,2.5,1.5,4.2,1.8c1.8,0.8,3.5,0.9,5.3,0.3
	c1.8-0.6,3.4-0.7,4.9,0c3.5-0.7,6.8-0.9,9.8-0.7c3,0.2,6.3,0.4,9.8,0.6c2,0.6,4.1,0.8,6.2,0.6c2.1-0.2,4.1-0.5,6.2-1
	c0.4-0.2,0.8-0.4,1.2-0.6c2.4-0.3,4.7-0.4,6.9-0.3c3,0.2,6.3,0.4,9.8,0.6c2,0.6,4.1,0.8,6.2,0.6c0.3,0,0.6-0.1,0.9-0.1
	c0.5,0.2,1.1,0.3,1.7,0.4c1.8,0.8,3.5,0.9,5.3,0.3c1.8-0.6,3.4-0.7,4.9,0c3.5-0.7,6.8-0.9,9.8-0.7c3,0.2,6.3,0.4,9.8,0.6
	c2,0.6,4.1,0.8,6.2,0.6c2.1-0.2,4.1-0.5,6.2-1c0.2-0.1,0.4-0.2,0.7-0.4c2.7-0.4,5.3-0.5,7.7-0.4c3,0.2,6.3,0.4,9.8,0.6
	c2,0.6,4.1,0.8,6.2,0.6c1.4-0.2,2.9-0.4,4.3-0.6c0.2,0.1,0.3,0.1,0.5,0.2c3.5-0.7,6.8-0.9,9.8-0.7c3.3,0.2,6.5,0.4,9.8,0.6
	c2,0.6,4.1,0.8,6.2,0.6c2.1-0.2,4.1-0.5,6.2-1c2.2-1.1,3.9-2.5,4.8-4.3c1-1.7,1.7-3.6,2.2-5.5l0.2-26.3c0.5-2.1,0.7-4.3,0.5-6.6
	c-0.1-2.2-0.2-4.4-0.2-6.6c-0.3-1.9-0.3-3.5,0-5c-0.8-2.9-0.9-5.9-0.5-8.9c0.5-3,0.6-6.1,0.3-9.2c-0.5-2.1-0.7-4.3-0.6-6.7
	c0.1-2.4-0.1-4.7-0.6-7c0.5-3.8,0.6-7.4,0.5-10.8c-0.1-3.5,0-7,0.5-10.5c-0.8-1.2-1.2-2.6-1.2-4.1c0-1.5,0-2.9,0.2-4.2
	c0.1-1.4,0.2-2.7,0.3-4.1c0.1-1.4-0.2-2.7-1-3.9c0.5-1.3,0.8-2.6,0.9-4.1c0.1-1.5,0.2-3,0.1-4.7c0.2-1,0-2-0.6-2.8
	c-0.6-0.8-0.5-1.8,0.5-2.8c-0.5-5-0.6-9.7-0.3-14.2c0.1-1.1,0.2-2.3,0.2-3.5c0.1-0.3,0.2-0.6,0.3-0.9l0.2-26.3
	c0.5-2.1,0.7-4.3,0.5-6.6c-0.1-2.2-0.2-4.4-0.2-6.6c-0.3-1.9-0.3-3.5,0-5c-0.8-2.9-0.9-5.9-0.5-8.9c0.5-3,0.6-6.1,0.3-9.2
	c-0.5-2.1-0.7-4.3-0.6-6.7c0.1-2.4-0.1-4.7-0.6-7c0.5-3.8,0.6-7.4,0.5-10.8c-0.2-3.4,0-6.9,0.5-10.5c-0.8-1.2-1.2-2.6-1.2-4.1
	c0-1.5,0-2.9,0.2-4.2c0.1-1.4,0.2-2.7,0.3-4.1c0.1-1.4-0.2-2.7-1-3.9c0.5-1.3,0.8-2.6,0.9-4.1c0.1-1.5,0.2-3,0.1-4.7
	c0.2-1,0-2-0.6-2.8c-0.6-0.8-0.4-1.8,0.5-2.8c-0.5-5-0.6-9.7-0.3-14.2c0.3-4.5,0.4-9.2,0.1-14.2c-0.8-2.3-1.1-4.5-1-6.7
	c0.1-2.2,0.2-4.4,0.1-6.7c-1-1.4-1.8-2.9-2.5-4.5c-0.6-1.6-2.1-2.6-4.3-3.2c-3.2,0.2-6.3,0.1-9.2-0.4c-2.9-0.5-6.1-0.5-9.6-0.1
	c-2,0.4-4.1,0.7-6.2,0.7l-4.9,0c-0.2-0.1-0.4-0.1-0.7-0.2c-3.3,0.2-6.3,0.1-9.2-0.4c-2.9-0.5-6.1-0.5-9.6-0.1
	c-2,0.4-4.1,0.7-6.2,0.7L608,4.9c-2.2,0-4.3,0.1-6.4,0.2C601,5,600.4,5,599.9,4.9c-2.9-0.5-6.1-0.5-9.6-0.1c-2,0.4-4.1,0.7-6.2,0.7
	c-2.1,0-4.3,0-6.6,0.1c-1.6,0-3.1,0.1-4.7,0.1c-0.8-0.6-1.8-1.1-3-1.5c-3.2,0.2-6.3,0.1-9.2-0.4c-2.9-0.5-6.1-0.5-9.6-0.1
	c-2,0.4-4.1,0.7-6.2,0.7l-6.6,0.1c-2.3,0-4.4,0.1-6.6,0.2c-0.1,0-0.2,0-0.3,0c-0.3,0-0.6-0.1-0.9-0.1c-2.9-0.5-6.1-0.5-9.6-0.1
	c-2,0.4-4.1,0.7-6.2,0.7l-4.3,0c-0.8-0.8-1.9-1.4-3.4-1.9c-3.2,0.2-6.3,0.1-9.2-0.4c-2.9-0.5-6.1-0.5-9.6-0.1
	c-2,0.4-4.1,0.7-6.2,0.7l-4.9,0c-0.2-0.1-0.4-0.1-0.7-0.2c-3.2,0.2-6.3,0.1-9.2-0.4c-2.9-0.5-6.1-0.5-9.6-0.1
	c-2,0.4-4.1,0.7-6.2,0.7c-2.1,0-4.3,0-6.6,0.1c-2.2,0-4.3,0.1-6.4,0.2c-0.6-0.1-1.2-0.1-1.8-0.2C433.7,3,430.6,3,427,3.4
	c-2,0.4-4.1,0.7-6.2,0.7l-6.6,0.1c-1.6,0-3.2,0.1-4.7,0.1c-0.8-0.6-1.8-1.1-3-1.5c-3.3,0.2-6.3,0.1-9.2-0.4
	c-2.9-0.5-6.1-0.5-9.6-0.1c-2,0.4-4.1,0.7-6.2,0.7L375,3c-2.3,0-4.4,0.1-6.6,0.2c-0.1,0-0.2,0-0.3,0c-0.3,0-0.6-0.1-0.9-0.1
	c-2.9-0.5-6.1-0.5-9.6-0.1c-2,0.4-4.1,0.7-6.2,0.7c-2.1,0-4.3,0-6.6,0c-2.3,0-4.4,0.1-6.6,0.2c-0.5,0-1,0.1-1.5,0.2
	c-2.7-0.4-5.6-0.4-8.8,0c-2,0.4-4.1,0.7-6.2,0.7l-4.9,0c-0.2-0.1-0.4-0.1-0.7-0.2c-3.2,0.2-6.3,0.1-9.2-0.4
	c-2.9-0.5-6.1-0.5-9.6-0.1c-2,0.4-4.1,0.7-6.2,0.7l-6.6,0.1c-2.2,0-4.3,0.1-6.4,0.2c-0.6-0.1-1.2-0.1-1.8-0.2
	c-2.9-0.5-6.1-0.5-9.6-0.1c-2,0.4-4.1,0.7-6.2,0.7c-2.1,0-4.3,0-6.6,0.1c-1.6,0-3.1,0.1-4.7,0.1c-0.8-0.6-1.8-1.1-3-1.5
	c-3.2,0.2-6.3,0.1-9.2-0.4c-2.9-0.5-6.1-0.5-9.6-0.1c-2,0.4-4.1,0.7-6.2,0.7l-6.6,0.1c-2.3,0-4.4,0.1-6.6,0.2c-0.1,0-0.2,0-0.3,0
	c-0.3,0-0.6-0.1-0.9-0.1c-2.9-0.5-6.1-0.5-9.6-0.1c-2,0.4-4.1,0.7-6.2,0.7l-4.3,0c-0.8-0.8-1.9-1.4-3.4-1.9
	c-3.3,0.2-6.3,0.1-9.2-0.4c-2.9-0.5-6.1-0.5-9.6-0.1c-2,0.4-4.1,0.7-6.2,0.7l-4.9,0c-0.2-0.1-0.4-0.1-0.7-0.2
	c-3.2,0.2-6.3,0.1-9.2-0.4c-2.9-0.5-6.1-0.5-9.6-0.1c-2,0.4-4.1,0.7-6.2,0.7c-2.1,0-4.3,0-6.6,0.1c-2.2,0-4.3,0.1-6.4,0.2
	c-0.6-0.1-1.2-0.1-1.8-0.2c-2.9-0.5-6.1-0.5-9.6-0.1c-2,0.4-4.1,0.7-6.2,0.7l-6.6,0.1c-1.6,0-3.2,0.1-4.7,0.1
	c-0.8-0.6-1.8-1.1-3-1.5c-3.3,0.2-6.3,0.1-9.2-0.4c-2.9-0.5-6.1-0.5-9.6-0.1c-2,0.4-4.1,0.7-6.2,0.7l-6.6,0c-2.3,0-4.4,0.1-6.6,0.2
	c-0.1,0-0.2,0-0.3,0c-0.3,0-0.6-0.1-0.9-0.1c-2.9-0.5-6.1-0.5-9.6-0.1c-2,0.4-4.1,0.7-6.2,0.7c-2.1,0-4.3,0-6.6,0
	c-2.3,0-4.4,0.1-6.6,0.2C12.7,4.1,10.7,4.6,9,5.4C7.7,6.7,6.4,8,5.1,9.2c-1.4,1.3-2.2,2.7-2.4,4.4c-0.7,1.7-0.8,3.4-0.3,5.2
	c0.5,1.8,1,3.5,1.5,5.1c-1.2,1.7-1.8,3.6-1.6,5.6c0.1,2.1,0.3,4.1,0.6,5.9c1.3,2.9,1.6,5.8,0.8,8.6c-0.7,2.8-0.7,5.7,0.1,8.6
	c-1,2.1-1.2,4.1-0.5,6.1c0.6,2,0.4,3.9-0.9,5.8c-0.5,2.1-0.4,3.9,0.2,5.5c0.6,1.6,0.7,3.5,0.2,5.8C4.1,84,4.4,92,3.6,99.8
	c-0.8,7.8-0.9,15.9-0.4,24.2c1.3,1.9,1.5,3.7,0.6,5.5c-0.9,1.8-1,3.7-0.5,5.8c0.8,1.7,1.1,3.2,1,4.7c-0.1,1.5-0.4,2.9-0.7,4.4
	c-0.4,1.5-0.7,3-0.9,4.5c-0.2,1.6-0.1,3.2,0.4,4.8c0.6,2.4,0.9,4.8,0.8,7.3c-0.5,1.4-0.6,2.9-0.3,4.3c0,2.2,0.2,4.4,0.8,6.5
	c-0.1,0.3-0.2,0.6-0.2,1c-0.5,1.2-0.7,2.4-0.6,3.7c0.1,1.3,0.2,2.5,0.3,3.7c0,0.8-0.1,1.5-0.2,2.3c0.4,0.6,0.8,1.3,1.2,2
	c0.6,2.2,0.7,4.4,0.1,6.6c-0.7,2.8-0.7,5.7,0.1,8.6c-1,2.1-1.2,4.1-0.5,6.1c0.6,2,0.3,3.9-0.9,5.8c-0.5,2.1-0.4,3.9,0.2,5.5
	c0.6,1.6,0.7,3.5,0.2,5.8c1.3,8.1,1.6,16.1,0.8,23.9c-0.8,7.8-0.9,15.9-0.4,24.2c1.3,1.9,1.5,3.7,0.6,5.5c-0.9,1.8-1,3.7-0.5,5.8
	c0.8,1.7,1.1,3.2,1,4.7c-0.1,1.5-0.4,2.9-0.7,4.4c-0.4,1.5-0.7,3-0.9,4.5c-0.2,1.6-0.1,3.2,0.4,4.8c0.8,2.9,1,5.9,0.6,9.1
	c-0.3,3.1-0.1,6.1,0.6,9.1c-0.5,1.7-0.7,3.4-0.5,5.3c0.1,1.9,0.1,3.6-0.1,5.3c1.1,1.8,2.1,3.6,3.1,5.5c1,2,2.9,3.2,5.7,3.6
	c1.8,0.8,3.5,0.9,5.3,0.3c1.8-0.6,3.4-0.7,4.9,0c3.5-0.7,6.8-0.9,9.8-0.7c3,0.2,6.3,0.4,9.8,0.6c2,0.6,4.1,0.8,6.2,0.6
	c2.1-0.2,4.1-0.5,6.2-1c0.4-0.2,0.8-0.4,1.2-0.6c2.4-0.3,4.7-0.4,6.9-0.3c3,0.2,6.3,0.4,9.8,0.6c2,0.6,4.1,0.8,6.2,0.6
	c0.3,0,0.6-0.1,0.9-0.1c0.5,0.2,1.1,0.3,1.7,0.4c1.8,0.8,3.5,0.9,5.3,0.3c1.8-0.6,3.4-0.7,4.9,0c3.5-0.7,6.8-0.9,9.8-0.7
	c3,0.2,6.3,0.4,9.8,0.5c2,0.6,4.1,0.8,6.2,0.6c2.1-0.2,4.1-0.5,6.2-1c0.2-0.1,0.4-0.2,0.7-0.4c2.7-0.4,5.3-0.5,7.7-0.4
	c3,0.2,6.3,0.4,9.8,0.6c2,0.6,4.1,0.8,6.2,0.6c1.4-0.2,2.9-0.4,4.3-0.6c0.2,0.1,0.3,0.1,0.5,0.2c3.5-0.7,6.8-0.9,9.8-0.7
	c2.9,0.2,6,0.4,9.3,0.5c1.1,0.9,2.5,1.5,4.2,1.8c1.8,0.8,3.5,0.9,5.3,0.3c1.8-0.6,3.4-0.7,4.9,0c3.5-0.7,6.8-0.9,9.8-0.7
	c3,0.2,6.3,0.4,9.8,0.6c2,0.6,4.1,0.8,6.2,0.6c2.1-0.2,4.1-0.5,6.2-1c0.4-0.2,0.8-0.4,1.2-0.6c2.4-0.3,4.7-0.4,6.9-0.3
	c3,0.2,6.3,0.4,9.8,0.6c2,0.6,4.1,0.8,6.2,0.6c0.3,0,0.6-0.1,0.9-0.1c0.5,0.2,1.1,0.3,1.7,0.4c1.8,0.8,3.5,0.9,5.3,0.3
	c1.8-0.6,3.4-0.7,4.9,0c3.5-0.7,6.8-0.9,9.8-0.7C268.6,339.8,271.8,340,275.3,340.2"/>
</svg>
