<svg xmlns="http://www.w3.org/2000/svg" width="335" height="339" viewBox="0 0 335 339">
    <path fill="none" fill-rule="evenodd" stroke="#6B739A" stroke-width="4" d="M332.349 201.953c.595-.995.78-2.016.563-3.065a16.345 16.345 0 0 0-.962-3.058c-.112-.12-.244-.221-.364-.333-.377-1.344-.507-2.612-.362-3.8.179-1.486.359-3.096.539-4.829.597-.994.78-2.016.565-3.064a16.364 16.364 0 0 0-.617-2.12c.052-.083.108-.166.174-.248-.637-1.732-.867-3.337-.685-4.823.178-1.486.36-3.096.54-4.83.595-.994.78-2.015.564-3.064a16.5 16.5 0 0 0-.964-3.058 7.482 7.482 0 0 0-.782-.721c-.29-1.189-.379-2.316-.249-3.38.178-1.486.36-3.096.54-4.829.595-.994.78-2.016.564-3.065a16.348 16.348 0 0 0-.964-3.058 7.441 7.441 0 0 0-.627-.575c-.291-1.192-.382-2.322-.25-3.388.177-1.486.358-3.097.538-4.83.596-.994.781-2.015.564-3.064-.033-.156-.083-.307-.12-.462.161-.26.291-.536.378-.838.8-.87.89-1.738.266-2.599-.624-.866-.637-1.668-.036-2.413-.638-1.732-.867-3.338-.685-4.823.178-1.487.36-3.097.538-4.83.597-.994.78-2.015.566-3.064a16.337 16.337 0 0 0-.963-3.058c-.113-.12-.244-.221-.363-.333-.38-1.345-.509-2.612-.363-3.8.178-1.486.36-3.096.539-4.829.595-.994.78-2.016.564-3.064a16.54 16.54 0 0 0-.615-2.12c.05-.083.106-.166.172-.248-.637-1.732-.867-3.337-.684-4.823.17-1.422.344-2.96.515-4.608.889-.522 1.463-1.219 1.713-2.096.8-.87.891-1.738.268-2.6-.625-.865-.638-1.668-.037-2.413-.638-1.732-.867-3.337-.685-4.823.179-1.486.359-3.096.539-4.829.596-.994.78-2.016.563-3.065a16.358 16.358 0 0 0-.961-3.058c-.194-.206-.41-.39-.628-.575-.292-1.192-.381-2.322-.251-3.388.179-1.486.359-3.096.539-4.829.595-.994.78-2.016.565-3.065-.033-.156-.085-.307-.122-.462.161-.26.292-.536.378-.838.8-.87.891-1.738.268-2.599-.626-.865-.638-1.668-.038-2.413-.638-1.732-.867-3.337-.684-4.824.178-1.485.359-3.095.539-4.828.595-.994.78-2.016.563-3.065a16.35 16.35 0 0 0-.962-3.059c-.112-.119-.244-.22-.364-.332-.377-1.344-.507-2.612-.362-3.8.179-1.486.359-3.096.539-4.829.597-.994.78-2.016.565-3.065a16.401 16.401 0 0 0-.617-2.119c.052-.083.108-.166.174-.248-.637-1.732-.867-3.337-.685-4.824.178-1.485.36-3.095.54-4.828.595-.994.78-2.016.564-3.065a16.512 16.512 0 0 0-.964-3.058c-1.039-1.11-2.425-1.91-4.16-2.396a37.736 37.736 0 0 0-5.364-1.09l-25.668-.079a42.83 42.83 0 0 0-6.42-.252c-2.243.07-4.383.112-6.415.12-1.832.13-3.465.136-4.89.02-2.85.384-5.752.457-8.705.223a71.933 71.933 0 0 0-9.017-.148c-2.034.255-4.224.358-6.563.306a49.588 49.588 0 0 0-6.871.308 121.293 121.293 0 0 0-10.545-.235c-3.361.075-6.776-.003-10.24-.235-1.217.377-2.54.568-3.964.574a89.477 89.477 0 0 1-4.125-.076c-1.33-.058-2.652-.113-3.976-.169a11.127 11.127 0 0 0-3.813.48 25.44 25.44 0 0 0-3.978-.447c-1.429-.058-2.956-.08-4.585-.073-1.023-.121-1.938-.025-2.746.29-.812.31-1.73.221-2.753-.268-4.886.268-9.52.32-13.901.151a188.998 188.998 0 0 0-3.391-.096c-.287-.044-.573-.09-.863-.128l-25.667-.078a42.9 42.9 0 0 0-6.42-.252c-2.244.07-4.383.111-6.416.12-1.83.13-3.464.136-4.89.02-2.849.384-5.75.457-8.704.223a72.032 72.032 0 0 0-9.016-.148c-2.036.255-4.225.357-6.565.307a49.603 49.603 0 0 0-6.87.307c-3.671-.235-7.186-.313-10.546-.234-3.36.075-6.774-.004-10.24-.236-1.216.377-2.541.568-3.963.574a89.521 89.521 0 0 1-4.127-.076c-1.328-.058-2.65-.113-3.974-.169a11.124 11.124 0 0 0-3.812.48 25.323 25.323 0 0 0-3.98-.447c-1.428-.058-2.955-.08-4.584-.074-1.023-.12-1.939-.023-2.746.29-.811.312-1.73.222-2.753-.267-4.885.267-9.52.32-13.901.152-4.386-.168-9.017-.18-13.903-.035a34.103 34.103 0 0 1-6.563.492 220.08 220.08 0 0 0-6.57-.065c-1.42.498-2.889.908-4.412 1.225-1.523.314-2.58 1.032-3.175 2.148.225 1.606.094 3.123-.39 4.55-.485 1.422-.514 3-.082 4.733a8.03 8.03 0 0 1 .658 3.06l.037 2.416c-.071.105-.139.212-.2.325.225 1.606.095 3.123-.389 4.55-.484 1.423-.514 3-.082 4.733a8.05 8.05 0 0 1 .659 3.06l.048 3.248c.016 1.09.08 2.147.196 3.177-.067.292-.14.582-.236.866-.486 1.423-.513 3-.08 4.734.42.987.64 2.007.656 3.06l.05 3.247c.011.793.057 1.563.121 2.324A3.817 3.817 0 0 0 4.11 56.46c.223 1.606.093 3.123-.391 4.55-.484 1.423-.514 3-.082 4.734.422.987.643 2.007.659 3.06.015 1.05.031 2.134.05 3.248.016 1.113.08 2.194.201 3.247.006.059.025.114.034.172-.043.15-.074.305-.124.454-.485 1.423-.513 3-.082 4.734.422.987.642 2.007.658 3.06l.033 2.12c-.807.388-1.412.95-1.809 1.693.226 1.606.096 3.123-.388 4.55-.487 1.422-.514 3-.082 4.733a8.07 8.07 0 0 1 .657 3.06l.037 2.416c-.07.105-.139.212-.199.325.225 1.606.095 3.123-.39 4.55-.485 1.423-.514 3-.081 4.733a8.05 8.05 0 0 1 .657 3.06l.05 3.248c.016 1.09.08 2.147.196 3.178-.069.29-.14.581-.237.865-.484 1.423-.514 3-.081 4.734.421.987.642 2.007.658 3.06l.05 3.247c.01.793.056 1.563.12 2.323a3.824 3.824 0 0 0-1.448 1.5c.225 1.605.095 3.122-.39 4.548-.484 1.424-.513 3.001-.081 4.734.422.987.642 2.007.658 3.06l.049 3.248c.018 1.114.08 2.195.202 3.248.007.058.027.113.035.172-.044.15-.074.305-.125.454-.484 1.423-.513 3-.081 4.734.42.987.642 2.007.658 3.06l.049 3.248c.017 1.113.08 2.194.202 3.247.03.259.08.512.153.76-.371 1.324-.38 2.771.014 4.354.421.987.642 2.007.658 3.06l.037 2.416c-.071.105-.139.212-.2.325.225 1.606.095 3.123-.389 4.55-.484 1.423-.514 3-.082 4.734.422.986.642 2.006.659 3.059l.048 3.248c.016 1.09.08 2.147.196 3.178-.067.29-.14.581-.236.865-.486 1.423-.513 3-.08 4.734.42.987.64 2.006.656 3.06l.05 3.247c.011.793.057 1.563.121 2.323a3.817 3.817 0 0 0-1.447 1.5c.223 1.606.093 3.122-.391 4.548-.484 1.424-.514 3-.082 4.735a8.03 8.03 0 0 1 .659 3.06c.015 1.049.031 2.134.05 3.247.016 1.114.08 2.195.201 3.248.006.058.025.113.034.172-.043.15-.074.305-.124.454-.485 1.423-.513 3-.082 4.734.422.987.642 2.007.658 3.06l.033 2.12c-.807.388-1.412.95-1.809 1.693.226 1.606.096 3.123-.388 4.55-.487 1.422-.514 3-.082 4.733.42.987.642 2.007.657 3.06l.037 2.416c-.07.105-.139.211-.199.325.225 1.606.095 3.123-.39 4.55-.485 1.422-.514 3-.081 4.733a8.05 8.05 0 0 1 .657 3.06l.05 3.248c.016 1.09.08 2.147.196 3.177-.069.292-.14.582-.237.866-.484 1.423-.514 3-.081 4.734.421.987.642 2.007.658 3.06l.05 3.247c.01.792.056 1.563.12 2.324a3.82 3.82 0 0 0-1.448 1.498c.225 1.606.095 3.123-.39 4.55-.484 1.423-.513 3-.081 4.734a8.03 8.03 0 0 1 .658 3.059l.049 3.248c.018 1.113.08 2.195.202 3.247.007.059.027.115.035.172-.044.151-.074.306-.125.455-.484 1.423-.513 3-.081 4.734a8.05 8.05 0 0 1 .658 3.06l.049 3.247c.017 1.114.08 2.195.202 3.248.117 1.05.59 2.007 1.417 2.872 1.231.611 2.465 1.256 3.697 1.933 1.231.672 2.662 1.07 4.296 1.188a13.83 13.83 0 0 0 5.044.165c1.724-.257 3.4-.51 5.03-.764 1.638.611 3.475.882 5.512.811 2.034-.07 3.97-.172 5.801-.302 2.841-.633 5.641-.767 8.396-.407 2.757.36 5.553.349 8.404-.035 2.04.485 4.028.57 5.962.254a11.655 11.655 0 0 1 5.66.44c2.037.238 3.822.198 5.345-.116 1.522-.316 3.403-.356 5.65-.115 7.935-.655 15.725-.78 23.37-.377 7.644.4 15.539.459 23.683.18 1.825-.63 3.604-.73 5.343-.302 1.735.425 3.623.51 5.657.255 1.622-.378 3.148-.542 4.576-.484 1.424.055 2.852.174 4.284.354 1.425.179 2.907.326 4.437.445 1.53.115 3.104.047 4.733-.206a45.89 45.89 0 0 1 7.145-.374c1.376.261 2.785.305 4.23.133a45.339 45.339 0 0 0 6.338-.39c.313.046.635.082.957.116 1.133.231 2.347.326 3.643.281a171.22 171.22 0 0 0 3.59-.167c.752.016 1.488.046 2.204.098.634-.197 1.3-.394 1.98-.591a23.645 23.645 0 0 1 6.423-.048c2.757.36 5.554.347 8.402-.036 2.042.484 4.03.569 5.963.253a11.667 11.667 0 0 1 5.66.44c2.038.238 3.821.199 5.346-.115 1.522-.316 3.402-.357 5.65-.116 7.935-.655 15.725-.78 23.37-.377 7.645.4 15.537.46 23.684.18 1.824-.63 3.602-.73 5.342-.302 1.735.425 3.622.51 5.656.255 1.623-.378 3.148-.542 4.577-.483 1.423.055 2.852.174 4.283.353 1.426.179 2.908.327 4.437.445 1.529.115 3.104.048 4.734-.206 2.843-.382 5.798-.488 8.855-.314 3.059.171 6.007.067 8.857-.317 1.632.24 3.366.326 5.198.258a46.663 46.663 0 0 1 5.197.07c1.62-.503 3.392-1.006 5.323-1.507 1.927-.505 3.083-1.437 3.472-2.8.8-.87.89-1.737.267-2.598-.625-.866-.637-1.67-.037-2.414-.638-1.732-.867-3.337-.685-4.823.178-1.486.36-3.096.54-4.829.595-.995.78-2.016.564-3.065a16.353 16.353 0 0 0-.964-3.058c-.192-.206-.41-.39-.627-.575-.291-1.192-.382-2.322-.25-3.388.177-1.487.358-3.097.538-4.83.596-.994.781-2.015.564-3.064-.033-.156-.083-.307-.12-.462.161-.26.291-.537.378-.838.8-.87.89-1.738.266-2.6-.624-.865-.637-1.667-.036-2.412-.638-1.733-.867-3.338-.685-4.824.178-1.486.36-3.096.538-4.828.597-.995.78-2.017.566-3.065a16.36 16.36 0 0 0-.963-3.059c-.113-.12-.244-.22-.363-.332-.38-1.345-.509-2.612-.363-3.8.178-1.486.36-3.097.539-4.83.595-.993.78-2.015.564-3.064a16.557 16.557 0 0 0-.615-2.12c.05-.082.106-.165.172-.247-.637-1.732-.867-3.337-.684-4.824.17-1.421.344-2.96.515-4.608.889-.521 1.463-1.218 1.713-2.095.8-.87.891-1.738.268-2.6-.625-.865-.638-1.668-.037-2.412-.638-1.733-.867-3.338-.685-4.824.179-1.486.359-3.096.539-4.829.596-.994.78-2.016.563-3.065a16.342 16.342 0 0 0-.961-3.058c-.194-.206-.41-.39-.628-.575-.292-1.192-.381-2.322-.251-3.388.179-1.486.359-3.096.539-4.829.595-.995.78-2.016.565-3.065-.033-.156-.085-.307-.122-.462.161-.26.292-.536.378-.838.8-.87.891-1.738.268-2.599-.626-.865-.638-1.668-.038-2.413-.638-1.733-.867-3.338-.684-4.823.178-1.487.359-3.097.539-4.83" style="mix-blend-mode:difference"/>
</svg>
