<svg xmlns="http://www.w3.org/2000/svg" width="682" height="343" viewBox="0 0 682 343">
    <path fill="none" fill-rule="evenodd" stroke="#6B739A" stroke-width="4" d="M275.32 340.217c2.012.61 4.08.799 6.203.577a58.818 58.818 0 0 0 6.189-.985c.242-.115.446-.25.674-.373 2.72-.386 5.286-.52 7.69-.37 3.008.183 6.266.367 9.772.551 2.014.611 4.08.8 6.203.578a59.799 59.799 0 0 0 4.29-.63c.168.052.336.11.501.177 3.507-.652 6.755-.887 9.763-.701 3.007.182 6.265.368 9.773.552 2.012.61 4.08.799 6.202.578a59.37 59.37 0 0 0 6.19-.986 13.823 13.823 0 0 0 1.46-.802c2.405-.296 4.687-.388 6.84-.254 3.007.182 6.265.368 9.773.552 2.012.61 4.08.799 6.203.578a58.817 58.817 0 0 0 6.189-.987c.417-.197.79-.419 1.165-.642 2.411-.298 4.699-.39 6.856-.257 3.008.183 6.267.368 9.773.552 2.013.61 4.08.8 6.203.577.317-.033.621-.085.935-.123.525.165 1.086.299 1.696.387 1.762.819 3.517.912 5.26.273 1.752-.64 3.377-.653 4.884-.037 3.506-.653 6.755-.887 9.762-.701 3.008.182 6.267.367 9.773.55 2.013.611 4.08.8 6.203.58a58.776 58.776 0 0 0 6.19-.987c.241-.115.446-.249.673-.371 2.721-.388 5.286-.52 7.69-.372 3.008.183 6.266.369 9.773.552 2.013.61 4.08.8 6.203.578a60.464 60.464 0 0 0 4.29-.63c.168.052.335.11.5.176 3.507-.652 6.755-.887 9.763-.7 2.878.174 5.991.352 9.327.527 1.055.91 2.465 1.498 4.241 1.754 1.762.819 3.517.912 5.26.274 1.752-.64 3.378-.652 4.885-.038 3.505-.652 6.754-.887 9.761-.701 3.008.183 6.267.368 9.773.552 2.013.61 4.08.799 6.203.577a58.878 58.878 0 0 0 6.19-.984c.417-.199.79-.42 1.164-.643 2.411-.3 4.7-.39 6.858-.257 3.007.183 6.265.367 9.772.551 2.012.61 4.08.8 6.203.579.316-.034.62-.087.935-.125.525.165 1.086.299 1.695.387 1.762.819 3.518.912 5.26.274 1.753-.64 3.378-.652 4.885-.039 3.506-.652 6.754-.887 9.762-.7 3.007.182 6.266.368 9.773.552 2.012.61 4.08.799 6.203.577a58.836 58.836 0 0 0 6.19-.985c.24-.115.445-.25.673-.373 2.72-.386 5.286-.52 7.69-.37 3.008.183 6.266.367 9.773.551 2.013.611 4.08.8 6.203.578a59.934 59.934 0 0 0 4.289-.63c.168.052.336.11.502.177 3.506-.652 6.755-.887 9.763-.701a1220 1220 0 0 0 9.772.552c2.012.61 4.08.799 6.203.578a59.412 59.412 0 0 0 6.19-.986c2.245-1.064 3.864-2.483 4.848-4.26a23.09 23.09 0 0 0 2.208-5.492l.158-26.28c.489-2.09.656-4.281.51-6.573a122.551 122.551 0 0 1-.243-6.567c-.262-1.875-.276-3.547-.042-5.006a21.406 21.406 0 0 1-.45-8.912c.482-3.03.579-6.105.3-9.232-.517-2.083-.724-4.324-.62-6.72a25.999 25.999 0 0 0-.623-7.034c.475-3.759.633-7.357.475-10.797a59.64 59.64 0 0 1 .477-10.483 7.757 7.757 0 0 1-1.162-4.06c-.012-1.46.042-2.868.153-4.222.118-1.36.23-2.715.342-4.07.119-1.36-.21-2.658-.972-3.904.495-1.255.795-2.616.907-4.073.116-1.463.162-3.027.147-4.694.245-1.048.05-1.984-.586-2.812-.63-.83-.45-1.77.54-2.819-.54-5.001-.645-9.747-.305-14.232.085-1.14.15-2.298.196-3.471.089-.295.182-.587.258-.884l.158-26.278c.489-2.092.656-4.282.51-6.574a122.589 122.589 0 0 1-.242-6.568c-.263-1.874-.277-3.547-.043-5.006a21.4 21.4 0 0 1-.45-8.911c.48-3.03.579-6.105.3-9.232-.517-2.084-.724-4.325-.62-6.72.11-2.401-.098-4.746-.623-7.035.475-3.758.633-7.357.474-10.797-.151-3.44.008-6.935.478-10.483a7.774 7.774 0 0 1-1.162-4.058c-.012-1.462.04-2.87.153-4.225.118-1.36.23-2.714.342-4.069.119-1.36-.21-2.657-.973-3.903.496-1.255.796-2.616.907-4.074.117-1.462.162-3.026.149-4.693.245-1.048.048-1.985-.587-2.812-.63-.83-.449-1.77.54-2.819-.54-5.001-.645-9.746-.306-14.232.339-4.49.364-9.231.07-14.234-.772-2.291-1.1-4.528-.996-6.719.112-2.19.15-4.433.132-6.726a23.801 23.801 0 0 1-2.48-4.518c-.634-1.558-2.087-2.642-4.347-3.25-3.25.23-6.32.096-9.207-.4-2.88-.496-6.072-.526-9.58-.084a30.34 30.34 0 0 1-6.193.674l-4.89.038c-.214-.073-.43-.142-.658-.204-3.251.23-6.32.097-9.208-.4-2.88-.495-6.072-.525-9.58-.083a30.411 30.411 0 0 1-6.193.674l-6.574.05c-2.204.017-4.344.082-6.43.2-.59-.068-1.177-.143-1.752-.241-2.88-.497-6.072-.526-9.581-.083-1.998.43-4.061.657-6.192.673-2.124.016-4.32.034-6.573.05a130.21 130.21 0 0 0-4.702.125c-.759-.642-1.764-1.14-3.034-1.482-3.25.229-6.32.096-9.207-.4-2.88-.496-6.073-.527-9.58-.084a30.35 30.35 0 0 1-6.194.674l-6.573.051c-2.254.017-4.442.083-6.572.207-.119.006-.23.025-.348.034-.306-.043-.617-.075-.92-.127-2.88-.496-6.073-.525-9.58-.083a30.35 30.35 0 0 1-6.194.674l-4.29.033c-.785-.826-1.923-1.445-3.426-1.852-3.25.231-6.32.098-9.208-.398-2.88-.497-6.073-.526-9.58-.083-1.998.43-4.062.657-6.193.673l-4.89.037a10.106 10.106 0 0 0-.658-.203c-3.25.23-6.32.097-9.208-.4-2.88-.496-6.072-.526-9.58-.083-1.998.43-4.062.657-6.192.673-2.125.018-4.32.034-6.574.051-2.205.016-4.346.082-6.431.2a33.32 33.32 0 0 1-1.751-.242c-2.88-.495-6.074-.526-9.581-.083a30.347 30.347 0 0 1-6.193.674l-6.573.05c-1.604.012-3.163.059-4.702.124-.758-.642-1.763-1.14-3.033-1.482-3.251.23-6.32.096-9.207-.4-2.882-.495-6.074-.525-9.581-.083a30.35 30.35 0 0 1-6.193.674l-6.574.05c-2.253.018-4.442.082-6.572.207-.118.007-.23.027-.348.035-.305-.045-.618-.075-.92-.127-2.88-.496-6.072-.525-9.58-.083a30.42 30.42 0 0 1-6.193.673c-2.124.017-4.32.034-6.573.05-2.254.018-4.443.083-6.573.207-.524.03-1.036.081-1.538.157-2.68-.38-5.608-.39-8.812.014a30.347 30.347 0 0 1-6.192.674l-4.89.038a10.777 10.777 0 0 0-.658-.204c-3.25.23-6.32.097-9.207-.4-2.882-.495-6.074-.525-9.582-.083a30.402 30.402 0 0 1-6.192.674l-6.574.05c-2.204.017-4.345.082-6.431.2a33.503 33.503 0 0 1-1.752-.241c-2.88-.497-6.072-.526-9.58-.083-1.998.43-4.061.657-6.192.673-2.124.016-4.32.034-6.573.05a130.15 130.15 0 0 0-4.702.125c-.759-.642-1.764-1.14-3.034-1.482-3.25.229-6.32.096-9.207-.4-2.881-.496-6.072-.527-9.582-.084a30.34 30.34 0 0 1-6.192.674l-6.573.051c-2.255.017-4.442.083-6.572.207-.119.006-.23.025-.348.034-.306-.043-.618-.075-.92-.127-2.88-.496-6.073-.525-9.58-.083a30.347 30.347 0 0 1-6.193.674l-4.29.033c-.787-.826-1.924-1.445-3.427-1.852-3.251.231-6.322.098-9.208-.398-2.88-.497-6.073-.526-9.58-.083a30.49 30.49 0 0 1-6.192.673l-4.891.037a9.952 9.952 0 0 0-.659-.203c-3.25.23-6.32.097-9.207-.4-2.88-.496-6.072-.526-9.58-.083a30.42 30.42 0 0 1-6.193.673c-2.124.018-4.32.034-6.574.051-2.205.016-4.345.082-6.43.2-.59-.07-1.177-.142-1.751-.242-2.882-.495-6.073-.526-9.581-.083a30.35 30.35 0 0 1-6.194.674l-6.573.05c-1.603.012-3.162.059-4.702.124-.757-.642-1.762-1.14-3.032-1.482-3.251.23-6.32.096-9.208-.4-2.88-.495-6.073-.525-9.581-.083a30.337 30.337 0 0 1-6.191.674l-6.575.05c-2.253.018-4.443.082-6.572.207-.118.007-.231.027-.348.035-.305-.045-.618-.075-.92-.127-2.88-.496-6.073-.525-9.58-.083-1.999.43-4.062.657-6.193.673-2.124.017-4.32.034-6.573.05-2.255.018-4.443.083-6.573.207-2.124.12-4.062.604-5.812 1.452a107.454 107.454 0 0 1-3.913 3.785c-1.36 1.26-2.166 2.725-2.405 4.398-.736 1.672-.845 3.393-.333 5.164.52 1.765 1.033 3.48 1.547 5.15-1.238 1.677-1.786 3.557-1.643 5.643.144 2.082.349 4.064.611 5.94 1.282 2.908 1.552 5.775.824 8.595-.73 2.822-.705 5.685.07 8.604-.98 2.089-1.151 4.124-.513 6.104.646 1.975.351 3.908-.89 5.794-.481 2.086-.401 3.914.234 5.473.64 1.559.721 3.484.234 5.786 1.325 8.123 1.58 16.099.762 23.926-.81 7.826-.929 15.908-.362 24.247 1.273 1.868 1.476 3.689.61 5.47-.861 1.776-1.032 3.71-.516 5.791.765 1.661 1.096 3.223.979 4.685a26.667 26.667 0 0 1-.717 4.387 51.019 51.019 0 0 0-.9 4.542c-.233 1.566-.096 3.178.417 4.846.628 2.365.867 4.806.756 7.315a7.297 7.297 0 0 0-.269 4.33c-.027 2.217.229 4.38.79 6.49-.094.32-.166.65-.235.98-.468 1.16-.66 2.403-.57 3.73.089 1.266.206 2.482.339 3.674a22.38 22.38 0 0 1-.198 2.257c.399.65.797 1.331 1.196 2.027.623 2.219.658 4.411.098 6.577-.728 2.822-.703 5.685.073 8.602-.981 2.09-1.153 4.125-.514 6.105.645 1.975.35 3.907-.89 5.795-.482 2.086-.402 3.912.234 5.473.64 1.558.72 3.483.234 5.784 1.325 8.124 1.58 16.1.762 23.927-.81 7.827-.929 15.907-.362 24.248 1.273 1.867 1.476 3.688.609 5.47-.86 1.775-1.03 3.707-.516 5.79.766 1.662 1.097 3.223.978 4.686a26.554 26.554 0 0 1-.715 4.385 51.236 51.236 0 0 0-.9 4.542c-.233 1.566-.097 3.179.416 4.847.774 2.912.988 5.936.637 9.067-.347 3.131-.136 6.15.64 9.067-.486 1.67-.659 3.446-.52 5.322.146 1.877.096 3.647-.143 5.32a81.706 81.706 0 0 1 3.05 5.451c1.021 1.973 2.91 3.156 5.666 3.554 1.761.819 3.517.912 5.26.274 1.753-.64 3.377-.653 4.884-.038 3.507-.653 6.755-.887 9.763-.701 3.007.182 6.265.368 9.772.552 2.013.61 4.08.799 6.203.578a58.835 58.835 0 0 0 6.19-.987c.417-.197.79-.419 1.164-.642 2.412-.298 4.7-.39 6.857-.257 3.008.183 6.267.368 9.773.552 2.013.61 4.08.8 6.203.577.316-.033.621-.085.935-.123.525.165 1.086.299 1.695.387 1.762.819 3.517.912 5.261.273 1.752-.64 3.377-.653 4.884-.037 3.506-.653 6.755-.887 9.762-.701 3.008.182 6.266.367 9.772.55 2.014.611 4.082.8 6.204.58a58.858 58.858 0 0 0 6.19-.987c.241-.115.446-.249.672-.371 2.722-.388 5.287-.52 7.692-.372 3.006.183 6.266.369 9.773.552 2.011.61 4.08.8 6.203.578a60.519 60.519 0 0 0 4.288-.63c.168.052.335.11.502.176 3.505-.652 6.754-.887 9.762-.7 2.878.174 5.99.352 9.327.527 1.055.91 2.465 1.498 4.241 1.754 1.762.819 3.517.912 5.26.274 1.751-.64 3.377-.652 4.884-.038 3.506-.652 6.755-.887 9.762-.701 3.008.183 6.267.368 9.773.552 2.013.61 4.08.799 6.203.577a58.818 58.818 0 0 0 6.19-.984c.417-.199.79-.42 1.164-.643 2.412-.3 4.7-.39 6.857-.257 3.008.183 6.265.367 9.772.551 2.013.61 4.08.8 6.203.579.317-.034.622-.087.936-.125.526.165 1.085.299 1.695.387 1.762.819 3.518.912 5.26.274 1.752-.64 3.377-.652 4.885-.039 3.507-.652 6.754-.887 9.761-.7 3.008.182 6.267.368 9.774.552" style="mix-blend-mode:difference"/>
</svg>
