<svg xmlns="http://www.w3.org/2000/svg" width="616" height="306" viewBox="0 0 616 306">
    <defs>
        <linearGradient id="a" x1="50%" x2="50%" y1="0%" y2="100%">
            <stop offset="0%" stop-color="#454545"/>
            <stop offset="22.628%" stop-color="#999"/>
            <stop offset="100%" stop-color="#FFF"/>
        </linearGradient>
        <linearGradient id="b" x1="50%" x2="50%" y1="26.911%" y2="-43.605%">
            <stop offset="0%" stop-color="#FFF" stop-opacity="0"/>
            <stop offset="100%" stop-color="#FFF" stop-opacity=".55"/>
        </linearGradient>
        <linearGradient id="c" x1="100%" x2="30.057%" y1="50%" y2="50%">
            <stop offset="0%"/>
            <stop offset="22.218%" stop-color="#BABABA"/>
            <stop offset="54.678%" stop-color="#000108"/>
            <stop offset="100%" stop-color="#060606"/>
        </linearGradient>
    </defs>
    <g fill="none" fill-rule="evenodd">
        <path fill="#000105" d="M.723 264.412V41.588c0-21.37 17.537-38.694 39.17-38.694h536.215c21.632 0 39.169 17.324 39.169 38.694v222.824c0 21.37-17.537 38.694-39.17 38.694H39.893c-21.632 0-39.169-17.324-39.169-38.694zM14 39.052V266.16c.09 12.168 8.543 22.446 23.543 22.446h540.914c15 0 23.454-10.278 23.543-22.446V39.052c0-12.984-9.582-22.446-22.097-22.446H36.097C23.582 16.606 14 26.068 14 39.052z"/>
        <path fill="url(#a)" fill-opacity=".65" d="M262.496 0H37.716C27.222.676 17.543 5.737 8.681 15.183 14.38 9.925 24.546 2.89 37.987 2.89h224.239c13.44 0 23.606 7.036 29.306 12.294C282.669 5.737 272.99.676 262.496 0z" opacity=".596" transform="matrix(0 -1 1 0 0 303.106)"/>
        <path fill="url(#a)" fill-opacity=".65" d="M262.496 601.618H37.716c-10.918.475-20.331 4.58-27.716 12.848 5.7-4.758 14.546-10.234 27.987-10.234h224.239c13.44 0 23.088 6.288 28.788 11.045-7.714-8.885-17.339-13.212-28.518-13.659z" opacity=".695" transform="scale(1 -1) rotate(90 760 456.894)"/>
        <path fill="url(#b)" d="M288.666 614a38.81 38.81 0 0 0-22.664-7.26H36.718a38.832 38.832 0 0 0-25.209 9.246c7.133-7.857 17.428-12.79 28.875-12.79h221.342c10.45 0 19.94 4.111 26.94 10.804z" opacity=".602" transform="matrix(0 -1 -1 0 1219.181 303.106)"/>
        <path fill="url(#c)" d="M294.263 570.01V43.098c0-14.138-4.916-19.364-7.85-22.72-2.932-3.356-3.057-5.068 1.157-2.534s12.643 9.914 12.643 25.254V570.01c0 15.34-8.429 22.72-12.643 25.254-4.214 2.534-4.089.822-1.156-2.534 2.933-3.356 7.849-8.582 7.849-22.72z" opacity=".65" transform="matrix(0 -1 1 0 0 303.106)"/>
        <path fill="url(#c)" d="M9.965 570.01V43.098c0-14.138-4.916-19.364-7.85-22.72-2.932-3.356-3.057-5.068 1.157-2.534s12.643 9.914 12.643 25.254V570.01c0 15.34-8.429 22.72-12.643 25.254-4.214 2.534-4.089.822-1.156-2.534 2.933-3.356 7.85-8.582 7.85-22.72z" opacity=".65" transform="matrix(0 1 1 0 0 287.191)"/>
        <g fill="#000">
            <path d="M81.7 304v-1.787a2 2 0 0 1 2-2h20.582a2 2 0 0 1 2 2V304a2 2 0 0 1-2 2H83.7a2 2 0 0 1-2-2zM125.08 304v-1.787a2 2 0 0 1 2-2h42.272a2 2 0 0 1 2 2V304a2 2 0 0 1-2 2H127.08a2 2 0 0 1-2-2zM110.62 3.787V2a2 2 0 0 1 2-2h53.84a2 2 0 0 1 2 2v1.787a2 2 0 0 1-2 2h-53.84a2 2 0 0 1-2-2zM182.92 304v-1.787a2 2 0 0 1 2-2h42.272a2 2 0 0 1 2 2V304a2 2 0 0 1-2 2H184.92a2 2 0 0 1-2-2z"/>
        </g>
    </g>
</svg>
