<svg xmlns="http://www.w3.org/2000/svg" width="161" height="155" viewBox="0 0 161 155">
    <path fill="#323E4F" fill-rule="evenodd" d="M159.956 85.153c-.302-1.411-.308-2.723-.015-3.937-.31-2.827-.42-5.446-.33-7.873.088-2.424.178-5.052.266-7.88.29-1.623.38-3.291.277-5.002a78.833 78.833 0 0 0-.466-4.99c-.054-.196-.118-.36-.176-.543-.183-2.194-.245-4.262-.173-6.201.088-2.425.177-5.052.265-7.88a21.06 21.06 0 0 0 .277-5.003 81.024 81.024 0 0 0-.293-3.412c.027-.15.044-.303.08-.451-.308-2.827-.419-5.445-.329-7.871.088-2.425.177-5.052.265-7.88a21.06 21.06 0 0 0 .277-5.002 78.333 78.333 0 0 0-.466-4.99c-.503-1.811-1.176-3.116-2.02-3.907-.845-.797-1.712-1.388-2.605-1.777L142.319.449a6.432 6.432 0 0 0-3.12-.406c-1.089.116-2.128.184-3.117.2-.888.212-1.682.226-2.375.038-1.384.628-2.795.75-4.23.369a10.583 10.583 0 0 0-4.38-.234c-.99.419-2.053.587-3.19.506a7.5 7.5 0 0 0-3.339.508c-1.782-.38-3.49-.505-5.122-.374a16.843 16.843 0 0 1-4.976-.377c-.591.616-1.234.929-1.926.94-.694.012-1.362-.03-2.004-.12-.646-.094-1.289-.183-1.932-.273-.645-.094-1.261.173-1.852.788a4.448 4.448 0 0 0-1.933-.727 14.872 14.872 0 0 0-2.228-.118c-.497-.195-.942-.036-1.334.477-.394.508-.841.363-1.338-.435-2.374.441-4.626.53-6.754.26-.541-.068-1.09-.12-1.647-.156-.14-.071-.279-.147-.42-.208l-12.471-.106a6.448 6.448 0 0 0-3.12-.407 33.95 33.95 0 0 1-3.116.202c-.89.213-1.683.225-2.376.037-1.385.63-2.795.75-4.23.37A10.557 10.557 0 0 0 55.41.97c-.989.418-2.053.585-3.19.504a7.497 7.497 0 0 0-3.339.508c-1.783-.38-3.49-.505-5.123-.374-1.633.125-3.292 0-4.975-.377-.592.617-1.235.93-1.926.94-.693.012-1.362-.03-2.005-.12-.646-.094-1.288-.183-1.931-.272-.645-.094-1.262.172-1.853.787a4.462 4.462 0 0 0-1.933-.727 15.06 15.06 0 0 0-2.227-.116c-.497-.197-.942-.038-1.334.475-.395.508-.84.364-1.339-.434-2.373.44-4.625.528-6.754.26-2.13-.27-4.38-.287-6.755-.046-1.087.623-2.149.892-3.188.808a32.285 32.285 0 0 0-3.193-.101C3.654 3.5 2.94 4.169 2.2 4.688 1.46 5.203.945 6.374.655 8.195c.108 2.622.044 5.097-.193 7.426-.236 2.322-.252 4.897-.043 7.725.204 1.61.31 3.275.317 4.993l.016 4.008c-.031.159-.07.295-.097.465.108 2.622.044 5.097-.193 7.426C.226 42.56.21 45.135.419 47.963c.204 1.61.31 3.275.317 4.993l.022 5.3c.006 1.778.036 3.504.092 5.186-.034.475-.069.948-.116 1.412-.236 2.324-.252 4.897-.042 7.726.203 1.61.31 3.275.317 4.992l.021 5.302c.005 1.3.027 2.565.057 3.813-.302.612-.543 1.405-.705 2.425.108 2.62.044 5.095-.192 7.424-.237 2.323-.252 4.897-.044 7.726.204 1.61.31 3.275.317 4.992l.021 5.3c.008 1.818.038 3.583.097 5.3.002.095.012.186.016.28-.021.247-.036.498-.06.743-.237 2.323-.253 4.896-.044 7.725.204 1.61.31 3.275.317 4.992l.022 5.302c.007 1.816.037 3.581.095 5.3.056 1.71.285 3.274.687 4.684a84.195 84.195 0 0 1 1.795 3.152c.598 1.097 1.292 1.745 2.086 1.937.793.592 1.61.678 2.45.264.838-.42 1.653-.837 2.445-1.25.795.995 1.688 1.436 2.677 1.319a24.788 24.788 0 0 0 2.819-.498c1.38-1.036 2.741-1.256 4.08-.67 1.339.585 2.698.563 4.082-.065.992.79 1.958.927 2.898.408.937-.52 1.854-.284 2.749.714.99.388 1.857.32 2.597-.193.74-.517 1.654-.584 2.746-.193 3.856-1.075 7.64-1.287 11.355-.634 3.714.648 7.55.737 11.507.273.887-1.029 1.751-1.193 2.596-.496.843.693 1.76.828 2.749.412.788-.62 1.53-.887 2.223-.793.692.087 1.386.28 2.081.573.693.292 1.413.53 2.156.722.742.188 1.507.076 2.3-.34a7.027 7.027 0 0 1 3.471-.614c.669.425 1.353.495 2.055.213a7.044 7.044 0 0 0 3.08-.642c.186.092.375.167.567.23.522.33 1.076.484 1.668.415a26.176 26.176 0 0 0 1.722-.271c.373.024.74.067 1.093.153.307-.32.635-.642.965-.962 1.052-.503 2.092-.538 3.119-.09 1.338.586 2.698.564 4.082-.063.991.789 1.957.925 2.897.408.937-.522 1.855-.286 2.75.713.989.387 1.856.321 2.597-.193.74-.517 1.653-.583 2.745-.193 3.856-1.074 7.642-1.286 11.356-.634 3.713.647 7.549.737 11.506.274.887-1.029 1.752-1.193 2.597-.497.842.692 1.76.829 2.748.412.789-.618 1.53-.887 2.224-.794a7.98 7.98 0 0 1 2.08.575c.693.29 1.414.529 2.156.722.743.188 1.508.076 2.3-.34a7.046 7.046 0 0 1 4.304-.52 7.047 7.047 0 0 0 4.303-.523c.792.39 1.635.527 2.525.414.89-.119 1.73-.08 2.525.112a39.91 39.91 0 0 1 2.588-2.465c.936-.825 1.498-2.348 1.688-4.57a8.835 8.835 0 0 0 .133-4.243c-.304-1.411-.309-2.722-.017-3.937-.308-2.827-.419-5.447-.329-7.873.088-2.425.177-5.052.267-7.88.289-1.623.38-3.291.275-5.002a78.432 78.432 0 0 0-.465-4.99c-.093-.336-.2-.637-.304-.938a50.673 50.673 0 0 1-.12-5.53c.088-2.425.178-5.052.266-7.88.29-1.623.38-3.291.277-5.002-.017-.263-.042-.517-.06-.777.077-.42.143-.859.186-1.344a8.826 8.826 0 0 0 .131-4.243" opacity=".794"/>
</svg>
