<?xml version="1.0" encoding="utf-8"?>
<!-- Generator: Adobe Illustrator 19.0.0, SVG Export Plug-In . SVG Version: 6.00 Build 0)  -->
<svg version="1.1" id="Layer_1" xmlns:serif="http://www.serif.com/"
	 xmlns="http://www.w3.org/2000/svg" xmlns:xlink="http://www.w3.org/1999/xlink" x="0px" y="0px" viewBox="0 0 960 560"
	 style="enable-background:new 0 0 960 560;" xml:space="preserve">
<style type="text/css">
	.st0{fill:none;}
	.st1{fill:#F5CD66;}
	.st2{fill:#F5CD66;fill-opacity:0.3569;}
</style>
<g id="Plan-de-travail1" transform="matrix(0.186629,0,0,0.32965,0,0)" serif:id="Plan de travail1">
	<rect x="2223.4" y="0" class="st0" width="694.3" height="1695.6"/>
	<g id="_5" transform="matrix(5.35822,0,0,3.03352,-622.648,-744.094)" serif:id="5">
		<g id="XMLID_28_" transform="matrix(0.179759,0,0,0.179759,89.2409,269.4)">
			<circle class="st1" cx="2808.6" cy="907.5" r="20.6"/>
		</g>
		<g id="XMLID_25_" transform="matrix(0.179759,0,0,0.179759,89.2409,269.4)">
			<circle class="st2" cx="2808.6" cy="907.5" r="33.9"/>
		</g>
	</g>
	<g id="_4" transform="matrix(5.35822,0,0,3.03352,-622.648,-744.094)" serif:id="4">
		<g id="XMLID_39_" transform="matrix(0.179759,0,0,0.179759,162.308,283.072)">
			<circle class="st1" cx="2577.2" cy="1340.5" r="20.6"/>
		</g>
		<g id="XMLID_26_" transform="matrix(0.179759,0,0,0.179759,162.308,283.072)">
			<circle class="st2" cx="2577.2" cy="1340.5" r="33.9"/>
		</g>
	</g>
	<g id="_3" transform="matrix(5.35822,0,0,3.03352,-622.648,-744.094)" serif:id="3">
		<g id="XMLID_41_" transform="matrix(0.179759,0,0,0.179759,96.9706,329.668)">
			<circle class="st1" cx="2654.4" cy="1508.7" r="20.6"/>
		</g>
		<g id="XMLID_27_" transform="matrix(0.179759,0,0,0.179759,96.6829,329.668)">
			<circle class="st2" cx="2653.7" cy="1508.7" r="33.9"/>
		</g>
	</g>
	<g id="_2" transform="matrix(5.35822,0,0,3.03352,-622.648,-744.094)" serif:id="2">
		<g id="XMLID_40_" transform="matrix(0.179759,0,0,0.179759,123.732,380.484)">
			<circle class="st1" cx="2771.2" cy="1328.7" r="20.6"/>
		</g>
		<g id="XMLID_29_" transform="matrix(0.179759,0,0,0.179759,123.732,380.484)">
			<circle class="st2" cx="2771.2" cy="1328.7" r="33.9"/>
		</g>
	</g>
	<g id="_1" transform="matrix(5.35822,0,0,3.03352,-622.648,-744.094)" serif:id="1">
		<g id="XMLID_38_" transform="matrix(0.179759,0,0,0.179759,127.255,409.58)">
			<circle class="st1" cx="2561.8" cy="1685.6" r="20.6"/>
		</g>
		<g id="XMLID_33_" transform="matrix(0.179759,0,0,0.179759,127.255,409.58)">
			<circle class="st2" cx="2561.8" cy="1685.6" r="33.9"/>
		</g>
	</g>
</g>
</svg>
