<svg xmlns="http://www.w3.org/2000/svg" width="23" height="24" viewBox="0 0 23 24">
    <g fill="#E4E4E5" fill-rule="evenodd">
        <path d="M1.903 15l.001.751c0 .164.019.25.056.249.074-.171.1-.38.082-.63-.02-.25-.066-.373-.14-.37zm1.023-.307l.055-.386-.11.006.055.38zM.082 15c-.069.193-.094.479-.076.86 0 .094.026.142.077.14.034-.098.055-.288.064-.575.008-.285-.014-.427-.065-.425zm1.964.246c-.013-.168-.043-.248-.091-.246-.037.002-.054.21-.054.63 0 .25.03.373.091.37.048-.337.066-.589.054-.754zM.067 15.13c-.045.002-.067.178-.067.526.015.23.046.346.09.343.046-.003.065-.208.057-.613-.008-.408-.035-.493-.08-.256zm1.979-1.85c-.013-.19-.039-.283-.077-.281a1.796 1.796 0 0 0-.057.718c0 .19.007.261.02.213.012-.05.031-.026.057.069.05-.196.07-.433.057-.718zM.996 14.31l.001.384.056-.003v-.383l-.056.002zm1.93-2.187c-.05.003-.075.196-.075.59.025.192.062.29.113.288.024-.2.036-.444.036-.736 0-.294-.025-.344-.075-.142zm-1.827.303c-.026-.57-.075-.567-.149.009 0 .38.038.57.112.566 0-.193.006-.287.019-.287.012-.001.018-.1.018-.288zm.92-.193c-.026.001-.049-.058-.069-.173-.02-.118-.036-.059-.049.181 0 .235.007.413.02.53.053.232.093.288.12.17.012-.239.012-.386-.001-.443a1.32 1.32 0 0 1-.02-.265zM.129 12c-.032.132-.055.169-.07.104-.016-.068-.032.033-.047.303a1.71 1.71 0 0 0 0 .398c.032.262.067.26.106-.006A3.08 3.08 0 0 0 .127 12zm1.792.119c0 .512.019.77.056.768l.055-.774-.111.006zm.119.074c-.013-.133-.043-.196-.092-.193-.013.001-.025.068-.037.204a2.175 2.175 0 0 0 0 .402c.013.265.037.397.074.394.061-.005.08-.276.055-.807zm.01.37c-.04-.604-.09-.721-.148-.355v.363c.04-.002.06.087.06.268 0 .181.02.208.06.088.019-.001.024-.063.014-.181-.01-.122-.005-.182.015-.183zM1.947 11c-.03.002-.046.221-.045.67.03-.001.045.05.045.165 0 .11.016.167.046.165.09-.674.074-1.007-.046-1zm-.005.122c-.027.195-.04.393-.04.59.027.192.068.291.122.288.027-.2.033-.444.02-.736-.015-.295-.048-.343-.102-.142zm-.932-.01c-.04 0-.06.199-.058.595.04.195.07.294.09.293.039-.101.059-.325.058-.67 0-.348-.03-.42-.09-.219zm1.04.656a7.208 7.208 0 0 0-.058-.662c-.007-.074-.03-.109-.069-.106.024.368.026.72.007 1.055-.019.334-.028.649-.028.945l.023-.002c.015-.372.038-.577.068-.615.031-.04.05-.245.058-.615zM1.007 10a3.353 3.353 0 0 0-.056.504c.02.333.057.499.113.496a2.73 2.73 0 0 0 .027-.67c-.02-.223-.047-.331-.084-.33zm.954 0c-.053.275-.07.55-.052.821.036.18.071.224.107.133a2.32 2.32 0 0 0 .025-.615c-.018-.228-.045-.34-.08-.339zm1.013-.874c-.014.001-.034-.035-.061-.104-.027-.073-.047.038-.06.332 0 .29.01.435.03.434.02-.002.044.068.071.212a3.8 3.8 0 0 1 .04-.33c.014-.077.007-.256-.02-.544zm-.084-1.125l-.009 3.886c-.002 1.195.001 2.487.01 3.88-.008.6-.008 1.245.001 1.942.01.692.009 1.39-.004 2.09-.006 1.097-.024 1.848-.053 2.254-.03.405-.057.81-.082 1.216-.025-.095-.052-.114-.08-.055-.029.055-.055-.013-.08-.205-.044.31-.09.395-.137.258-.047-.138-.092-.052-.136.257-.025.204-.05.259-.073.167a4.05 4.05 0 0 1-.068-.356 1.156 1.156 0 0 0-.066-.283c-.022-.046-.046.086-.07.391-.032.206-.061.139-.088-.203-.027-.343-.054-.262-.082.245-.126.228-.247.184-.365-.135-.118-.321-.238-.217-.36.313-.035-.193-.063-.16-.087.095-.023.253-.05.286-.082.095-.029-.492-.058-.609-.087-.351-.03.254-.06.187-.092-.202-.044.31-.087.32-.13.031-.042-.288-.085-.18-.129.331a1.2 1.2 0 0 1-.09.246c-.03.057-.059-.16-.084-.651l-.078.617c-.026.204-.052.161-.077-.13-.025-.095-.047-.414-.066-.955l-.057-1.554c-.013-.696-.02-1.466-.022-2.31a169773.707 169773.707 0 0 0-.004-5.226c0-.847-.003-1.668-.01-2.461a339.32 339.32 0 0 1 .002-3.81c.007-1.147.01-2.367.006-3.66.009-.898.025-1.476.049-1.729.023-.256.046-.586.068-.988.034-.008.068.007.1.05.034.041.067-.09.102-.398.075-.12.146-.111.214.022.067.133.139.09.214-.127.016.393.03.464.042.213C.862.558.876.481.892.577.917.57.94.588.962.634c.022.044.043.163.062.359.018-.304.038-.435.058-.388l.062.134c.02.044.041.065.063.06.022-.006.042-.16.061-.464.053.185.106.247.158.186.052-.065.106-.003.162.184.035-.21.07-.293.106-.25.036.04.07-.043.101-.25.047-.111.093-.074.139.116.045.187.09.127.134-.183.022.093.047.087.075-.018.032-.008.065-.042.1-.099.034-.06.067.007.098.2l.395.052c.029.192.056.483.083.876.027.39.048 1.034.064 1.926.006.794.011 1.614.015 2.46.003.844 0 1.666-.01 2.466zM8.903 18.583l.001.814c0 .178.019.271.056.27.074-.186.1-.411.082-.682-.02-.27-.066-.404-.14-.402zm1.023.751l.055-.418-.11.006.055.412zm-2.844-.75c-.069.209-.094.518-.076.931 0 .102.026.154.077.152.034-.106.055-.313.064-.623.008-.309-.014-.463-.065-.46zm1.964.265c-.013-.181-.043-.268-.091-.266-.037.002-.054.229-.054.682 0 .272.03.405.091.402.048-.365.066-.638.054-.818zm-1.979-.124c-.045.003-.067.193-.067.57.015.25.046.375.09.372.046-.003.065-.226.057-.664-.008-.442-.035-.535-.08-.278zm1.979-.92c-.013-.207-.039-.307-.077-.305-.064.21-.083.47-.057.778 0 .206.007.283.02.231.012-.054.031-.029.057.074.05-.212.07-.47.057-.778zm-1.05 1.113l.001.416.056-.003v-.415l-.056.002zm1.93-1.286c-.05.003-.075.213-.075.64.025.207.062.314.113.311.024-.216.036-.48.036-.797 0-.319-.025-.372-.075-.154zm-1.827.329c-.026-.618-.075-.614-.149.009 0 .412.038.618.112.613 0-.209.006-.31.019-.31.012-.002.018-.11.018-.312zm.92-.21c-.026.002-.049-.063-.069-.187-.02-.128-.036-.064-.049.196 0 .255.007.447.02.574.053.252.093.312.12.184.012-.258.012-.418-.001-.48a1.547 1.547 0 0 1-.02-.287zM7.129 17.5c-.032.143-.055.183-.07.113-.016-.074-.032.036-.047.328a2.005 2.005 0 0 0 0 .432c.032.283.067.28.106-.008.038-.293.042-.58.01-.865zm1.792.129c0 .555.019.834.056.832l.055-.839-.111.007zm.119.08c-.013-.145-.043-.213-.092-.209-.013.001-.025.074-.037.221-.012.144-.012.29 0 .435.013.288.037.43.074.427.061-.005.08-.298.055-.874zm.01.401c-.04-.655-.09-.781-.148-.385v.393c.04-.002.06.095.06.29 0 .197.02.226.06.096.019-.001.024-.068.014-.196-.01-.132-.005-.197.015-.198zm-.103-1.693c-.03.002-.046.24-.045.726.03-.002.045.054.045.179 0 .118.016.18.046.178.09-.73.074-1.09-.046-1.083zm-.005.131c-.027.212-.04.427-.04.64.027.208.068.315.122.312.027-.216.033-.481.02-.798-.015-.318-.048-.371-.102-.154zm-.932-.01c-.04.001-.06.215-.058.644.04.212.07.319.09.318.039-.11.059-.352.058-.725 0-.377-.03-.457-.09-.238zm1.04 1.378c-.023-.2-.042-.32-.058-.358-.007-.04-.03-.06-.069-.058.024.2.026.39.007.571-.019.181-.028.352-.028.512h.023c.015-.202.038-.313.068-.334.031-.022.05-.133.058-.333zm-1.043-1.5a3.925 3.925 0 0 0-.056.547c.02.36.057.54.113.537a3.2 3.2 0 0 0 .027-.725c-.02-.243-.047-.36-.084-.358zm.954 0c-.053.3-.07.596-.052.89.036.196.071.242.107.144.035-.2.043-.422.025-.667-.018-.246-.045-.368-.08-.366zm1.013-.946c-.014.001-.034-.038-.061-.113-.027-.08-.047.041-.06.36 0 .313.01.471.03.47.02-.002.044.073.071.23.013-.16.027-.28.04-.359.014-.083.007-.276-.02-.588zm-.084-.136L9.88 17.44c-.002.647.001 1.347.01 2.101-.008.325-.008.675.001 1.052.01.375.009.753-.004 1.133-.006.594-.024 1-.053 1.22-.03.22-.057.44-.082.659-.025-.051-.052-.062-.08-.03-.029.03-.055-.007-.08-.11-.044.167-.09.213-.137.139-.047-.075-.092-.028-.136.139-.025.11-.05.14-.073.09a1.348 1.348 0 0 1-.068-.192.413.413 0 0 0-.066-.153c-.022-.026-.046.046-.07.211-.032.112-.061.075-.088-.11-.027-.186-.054-.142-.082.133-.126.124-.247.1-.365-.073-.118-.174-.238-.118-.36.17-.035-.105-.063-.087-.087.05-.023.138-.05.156-.082.052-.029-.266-.058-.33-.087-.19-.03.138-.06.102-.092-.11-.044.169-.087.174-.13.018-.042-.156-.085-.098-.129.18a.516.516 0 0 1-.09.132c-.03.031-.059-.087-.084-.353l-.078.335c-.026.11-.052.087-.077-.071-.025-.051-.047-.224-.066-.517a124.09 124.09 0 0 0-.057-.842c-.013-.376-.02-.794-.022-1.251a49811.57 49811.57 0 0 0-.004-2.83c0-.46-.003-.904-.01-1.334a99.56 99.56 0 0 1 .002-2.063c.007-.622.01-1.283.006-1.983.009-.486.025-.8.049-.937.023-.138.046-.317.068-.535a.139.139 0 0 1 .1.028c.034.022.067-.05.102-.216.075-.065.146-.06.214.012.067.072.139.048.214-.07.016.214.03.252.042.117.013-.138.027-.18.043-.128.025-.003.048.007.07.032.022.023.043.088.062.194.018-.165.038-.236.058-.21l.062.072c.02.024.041.036.063.032.022-.002.042-.086.061-.25.053.1.106.133.158.1.052-.035.106-.002.162.1.035-.114.07-.159.106-.136.036.022.07-.023.101-.135.047-.06.093-.04.139.063.045.101.09.069.134-.099.022.05.047.047.075-.01a.193.193 0 0 0 .1-.054c.034-.032.067.004.098.109l.395.028c.029.104.056.262.083.474.027.212.048.56.064 1.043.006.43.011.875.015 1.333.003.457 0 .903-.01 1.336zM14.903 17.389l.001.71c0 .154.019.236.056.234.074-.162.1-.358.082-.594-.02-.236-.066-.353-.14-.35zm1.023-.29l.055-.365-.11.006.055.359zm-2.844.29c-.069.182-.094.452-.076.812 0 .089.026.134.077.132.034-.092.055-.272.064-.542.008-.27-.014-.404-.065-.402zm1.964.232c-.013-.158-.043-.234-.091-.232-.037.002-.054.199-.054.594 0 .237.03.353.091.35.048-.318.066-.556.054-.712zm-1.979-.109c-.045.003-.067.169-.067.497.015.218.046.327.09.324.046-.002.065-.197.057-.578-.008-.386-.035-.467-.08-.243zm1.979-.802c-.013-.18-.039-.268-.077-.266-.064.183-.083.41-.057.679 0 .179.007.246.02.201.012-.047.031-.025.057.065.05-.185.07-.41.057-.679zm-1.05.026l.001.363.056-.003v-.362l-.056.002zm1.93-1.121c-.05.003-.075.186-.075.558.025.18.062.274.113.271.024-.188.036-.419.036-.695 0-.278-.025-.324-.075-.134zm-1.827.287c-.026-.539-.075-.536-.149.007 0 .36.038.54.112.535 0-.182.006-.27.019-.27.012-.002.018-.096.018-.272zm.92-.183c-.026.001-.049-.055-.069-.163-.02-.112-.036-.056-.049.17 0 .223.007.39.02.501.053.22.093.272.12.16.012-.225.012-.364-.001-.418a1.18 1.18 0 0 1-.02-.25zm-1.891-.219c-.032.125-.055.16-.07.098-.016-.064-.032.031-.047.286-.015.124-.015.25 0 .377.032.247.067.245.106-.007.038-.256.042-.506.01-.754zm1.792.112c0 .484.019.728.056.726l.055-.731-.111.005zm.119.07c-.013-.126-.043-.185-.092-.182-.013.001-.025.065-.037.193a1.94 1.94 0 0 0 0 .38c.013.25.037.374.074.371.061-.004.08-.26.055-.761zm.01.35c-.04-.571-.09-.681-.148-.336v.343c.04-.002.06.083.06.253 0 .172.02.197.06.083.019 0 .024-.059.014-.17-.01-.116-.005-.172.015-.173zm-.103-1.476c-.03.001-.046.208-.045.633.03-.002.045.047.045.155 0 .104.016.158.046.156.09-.637.074-.95-.046-.944zm-.005.114a3.82 3.82 0 0 0-.04.558c.027.181.068.275.122.272a3.78 3.78 0 0 0 .02-.695c-.015-.278-.048-.325-.102-.135zm-.932-.01c-.04.002-.06.19-.058.563.04.185.07.278.09.277.039-.096.059-.307.058-.632 0-.33-.03-.398-.09-.207zm1.04.62a6.44 6.44 0 0 0-.058-.624c-.007-.07-.03-.103-.069-.1.024.347.026.68.007.996a14.71 14.71 0 0 0-.028.892l.023-.001c.015-.352.038-.545.068-.582.031-.038.05-.23.058-.58zm-1.043-1.669c-.038.212-.056.37-.056.476.02.315.057.471.113.469.036-.213.045-.424.027-.632-.02-.212-.047-.314-.084-.313zm.954 0c-.053.26-.07.52-.052.776.036.17.071.21.107.125.035-.174.043-.368.025-.581-.018-.215-.045-.321-.08-.32zm1.013.12c-.014 0-.034-.034-.061-.1-.027-.068-.047.037-.06.315 0 .273.01.41.03.409.02-.002.044.064.071.2a3.4 3.4 0 0 1 .04-.312c.014-.072.007-.241-.02-.513zm-.084-1.063l-.009 2.752c-.002.847.001 1.761.01 2.748-.008.425-.008.882.001 1.376.01.49.009.984-.004 1.48-.006.777-.024 1.31-.053 1.597-.03.287-.057.574-.082.861-.025-.067-.052-.08-.08-.039-.029.04-.055-.009-.08-.145-.044.22-.09.28-.137.183-.047-.098-.092-.037-.136.182-.025.145-.05.183-.073.118a2.143 2.143 0 0 1-.068-.252.631.631 0 0 0-.066-.2c-.022-.033-.046.06-.07.277-.032.145-.061.098-.088-.144-.027-.244-.054-.186-.082.173-.126.162-.247.13-.365-.095-.118-.228-.238-.154-.36.221-.035-.136-.063-.113-.087.067-.023.18-.05.203-.082.068-.029-.349-.058-.431-.087-.249-.03.18-.06.133-.092-.143-.044.22-.087.227-.13.022-.042-.204-.085-.127-.129.235a.714.714 0 0 1-.09.174c-.03.04-.059-.114-.084-.462l-.078.438c-.026.144-.052.114-.077-.093-.025-.067-.047-.293-.066-.676a211.61 211.61 0 0 0-.057-1.1 71.928 71.928 0 0 1-.022-1.637 84548.808 84548.808 0 0 0-.004-3.702c0-.6-.003-1.18-.01-1.743a170.25 170.25 0 0 1 .002-2.698c.007-.813.01-1.677.006-2.593.009-.636.025-1.045.049-1.225.023-.18.046-.415.068-.7.034-.005.068.005.1.036.034.03.067-.064.102-.282.075-.084.146-.079.214.016.067.094.139.063.214-.09.016.278.03.328.042.15.013-.179.027-.234.043-.165.025-.005.048.008.07.04.022.031.043.115.062.254.018-.215.038-.308.058-.275l.062.096c.02.03.041.046.063.041.022-.003.042-.113.061-.328.053.132.106.175.158.132.052-.046.106-.002.162.13.035-.148.07-.207.106-.177.036.028.07-.03.101-.176.047-.08.093-.053.139.081.045.133.09.09.134-.129.022.066.047.061.075-.013.032-.006.065-.03.1-.07.034-.042.067.005.098.142l.395.037c.029.135.056.342.083.62.027.277.048.732.064 1.364.006.563.011 1.143.015 1.743.003.597 0 1.18-.01 1.747zM21.903 18l.001.751c0 .164.019.25.056.249.074-.171.1-.38.082-.63-.02-.25-.066-.373-.14-.37zm1.023.693l.055-.386-.11.006.055.38zM20.082 18c-.069.193-.094.479-.076.86 0 .094.026.142.077.14.034-.098.055-.288.064-.575.008-.285-.014-.427-.065-.425zm1.964.246c-.013-.168-.043-.248-.091-.246-.037.002-.054.21-.054.63 0 .25.03.373.091.37.048-.337.066-.589.054-.754zm-1.979-.115c-.045.002-.067.178-.067.526.015.23.046.346.09.343.046-.003.065-.208.057-.613-.008-.408-.035-.493-.08-.256zm1.979-.85c-.013-.19-.039-.283-.077-.281a1.796 1.796 0 0 0-.057.718c0 .19.007.261.02.213.012-.05.031-.026.057.069.05-.196.07-.433.057-.718zm-1.05 1.028l.001.384.056-.003v-.383l-.056.002zm1.93-2.187c-.05.003-.075.196-.075.59.025.192.062.29.113.288.024-.2.036-.444.036-.736 0-.294-.025-.344-.075-.142zm-1.827.303c-.026-.57-.075-.567-.149.009 0 .38.038.57.112.566 0-.193.006-.287.019-.287.012-.001.018-.1.018-.288zm.92-.193c-.026.001-.049-.058-.069-.173-.02-.118-.036-.059-.049.181 0 .235.007.413.02.53.053.232.093.288.12.17.012-.239.012-.386-.001-.443a1.32 1.32 0 0 1-.02-.265zM20.129 16c-.032.132-.055.169-.07.104-.016-.068-.032.033-.047.303a1.71 1.71 0 0 0 0 .398c.032.262.067.26.106-.006a3.08 3.08 0 0 0 .01-.799zm1.792.119c0 .512.019.77.056.768l.055-.774-.111.006zm.119.074c-.013-.133-.043-.196-.092-.193-.013.001-.025.068-.037.204a2.175 2.175 0 0 0 0 .402c.013.265.037.397.074.394.061-.005.08-.276.055-.807zm.01.37c-.04-.604-.09-.721-.148-.355v.363c.04-.002.06.087.06.268 0 .181.02.208.06.088.019-.001.024-.063.014-.181-.01-.122-.005-.182.015-.183zM21.947 16c-.03.002-.046.221-.045.67.03-.001.045.05.045.165 0 .11.016.167.046.165.09-.674.074-1.007-.046-1zm-.005.122c-.027.195-.04.393-.04.59.027.192.068.291.122.288.027-.2.033-.444.02-.736-.015-.295-.048-.343-.102-.142zm-.932-.01c-.04 0-.06.199-.058.595.04.195.07.294.09.293.039-.101.059-.325.058-.67 0-.348-.03-.42-.09-.219zm1.04.272a1.875 1.875 0 0 0-.058-.33c-.007-.038-.03-.055-.069-.054.024.184.026.36.007.527A4.14 4.14 0 0 0 21.9 17h.023c.015-.187.038-.29.068-.309.031-.02.05-.122.058-.307zM21.007 15a3.353 3.353 0 0 0-.056.504c.02.333.057.499.113.496a2.73 2.73 0 0 0 .027-.67c-.02-.223-.047-.331-.084-.33zm.954 0c-.053.275-.07.55-.052.821.036.18.071.224.107.133a2.32 2.32 0 0 0 .025-.615c-.018-.228-.045-.34-.08-.339zm1.013-.874c-.014.001-.034-.035-.061-.104-.027-.073-.047.038-.06.332 0 .29.01.435.03.434.02-.002.044.068.071.212a3.8 3.8 0 0 1 .04-.33c.014-.077.007-.256-.02-.544zm-.084-.125l-.009 2.428c-.002.747.001 1.554.01 2.425-.008.375-.008.779.001 1.214.01.433.009.869-.004 1.307-.006.685-.024 1.154-.053 1.408-.03.253-.057.506-.082.76-.025-.06-.052-.071-.08-.034-.029.034-.055-.008-.08-.128-.044.193-.09.246-.137.16-.047-.086-.092-.032-.136.161-.025.128-.05.162-.073.105a1.719 1.719 0 0 1-.068-.223.515.515 0 0 0-.066-.176c-.022-.03-.046.053-.07.244-.032.128-.061.087-.088-.127-.027-.215-.054-.164-.082.153-.126.143-.247.115-.365-.084-.118-.201-.238-.136-.36.195-.035-.12-.063-.1-.087.06-.023.158-.05.178-.082.059-.029-.308-.058-.38-.087-.22-.03.16-.06.118-.092-.126-.044.194-.087.2-.13.02-.042-.18-.085-.112-.129.207a.608.608 0 0 1-.09.153c-.03.036-.059-.1-.084-.407l-.078.386c-.026.128-.052.1-.077-.082-.025-.058-.047-.258-.066-.596l-.057-.971c-.013-.435-.02-.916-.022-1.444a65824.931 65824.931 0 0 0-.004-3.266c0-.53-.003-1.042-.01-1.538-.006-.872-.006-1.665.002-2.381.007-.718.01-1.48.006-2.288.009-.561.025-.922.049-1.08.023-.16.046-.367.068-.618a.125.125 0 0 1 .1.031c.034.026.067-.057.102-.249.075-.074.146-.069.214.014.067.083.139.056.214-.08.016.246.03.29.042.134.013-.158.027-.207.043-.146.025-.004.048.007.07.035.022.028.043.102.062.225.018-.19.038-.272.058-.243l.062.084c.02.027.041.04.063.037.022-.003.042-.1.061-.29.053.116.106.155.158.116.052-.04.106-.002.162.116.035-.131.07-.184.106-.157.036.025.07-.027.101-.156.047-.07.093-.046.139.072.045.118.09.08.134-.113.022.057.047.054.075-.012.032-.005.065-.026.1-.062.034-.037.067.004.098.125l.395.033c.029.12.056.302.083.547.027.244.048.646.064 1.204.006.496.011 1.009.015 1.538.003.527 0 1.04-.01 1.54z"/>
    </g>
</svg>
