<?xml version="1.0" encoding="UTF-8" standalone="no"?>
<!DOCTYPE svg PUBLIC "-//W3C//DTD SVG 1.1//EN" "http://www.w3.org/Graphics/SVG/1.1/DTD/svg11.dtd">
<svg width="100%" height="100%" viewBox="0 0 161 52" version="1.1" xmlns="http://www.w3.org/2000/svg" xmlns:xlink="http://www.w3.org/1999/xlink" xml:space="preserve" xmlns:serif="http://www.serif.com/" style="fill-rule:evenodd;clip-rule:evenodd;stroke-linejoin:round;stroke-miterlimit:1.41421;">
    <g id="Plan-de-travail1" serif:id="Plan de travail1" transform="matrix(1.01697,0,0,1.07539,1.56121,0)">
        <rect x="-1.535" y="0" width="157.536" height="48.248" style="fill:none;"/>
        <g transform="matrix(0.790712,0,0,0.747756,-1.08785,7.05349e-06)">
            <path d="M117.16,37L117.169,37.751C117.17,37.915 117.287,38.001 117.523,38C117.987,37.829 118.159,37.62 118.04,37.37C117.918,37.12 117.626,36.997 117.16,37ZM152.297,35.693L152.646,35.307L151.944,35.313L152.297,35.693ZM27.273,36C26.406,36.58 26.085,37.437 26.312,38.58C26.314,38.862 26.64,39.006 27.292,39C27.722,38.707 27.989,38.135 28.095,37.276C28.196,36.42 27.924,35.994 27.273,36ZM129.263,36.737C129.029,36.234 128.453,35.993 127.539,36C126.852,36.006 126.513,36.632 126.522,37.888C126.528,38.64 127.1,39.01 128.25,39C129.156,37.99 129.494,37.234 129.263,36.737ZM43.961,36.261C43.391,36.267 43.107,36.618 43.111,37.314C43.302,37.774 43.687,38.005 44.258,38C44.829,37.994 45.063,37.583 44.963,36.775C44.86,35.958 44.528,35.787 43.961,36.261ZM146.129,34.845C145.882,34.271 145.399,33.993 144.676,34C143.47,34.581 143.113,35.302 143.606,36.154C143.609,36.724 143.73,36.938 143.971,36.794C144.207,36.644 144.57,36.715 145.058,37C146.016,36.413 146.372,35.7 146.128,34.845L146.129,34.845ZM57.461,34.309L57.464,34.693L57.814,34.69L57.812,34.307L57.461,34.309ZM157.915,33.122C157.6,33.125 157.447,33.318 157.449,33.712C157.605,33.904 157.839,34.002 158.157,34C158.31,33.8 158.389,33.556 158.387,33.264C158.385,32.97 158.227,32.92 157.915,33.122ZM92.783,32.425C92.621,31.855 92.311,31.858 91.845,32.434C91.848,32.814 92.083,33.004 92.552,33C92.55,32.807 92.587,32.713 92.667,32.713C92.744,32.712 92.784,32.613 92.783,32.425ZM105.337,30.463C104.875,30.475 104.42,30.355 104.023,30.118C103.648,29.881 103.332,30 103.092,30.48C103.096,30.95 103.221,31.306 103.475,31.54C104.473,32.005 105.223,32.116 105.725,31.88C105.965,31.402 105.963,31.107 105.717,30.993C105.463,30.873 105.339,30.696 105.337,30.463ZM40.973,31C40.578,31.265 40.286,31.337 40.092,31.208C39.893,31.072 39.697,31.274 39.507,31.813C39.312,32.076 39.314,32.344 39.512,32.611C39.906,33.134 40.347,33.129 40.835,32.597C41.32,32.055 41.365,31.525 40.973,31ZM117.267,30.119C117.271,30.631 117.388,30.889 117.624,30.887L117.969,30.113L117.267,30.119ZM142.251,30.387C142.015,30.119 141.433,29.993 140.508,30C140.275,30.002 140.042,30.137 139.816,30.409C139.583,30.673 139.585,30.944 139.821,31.212C140.054,31.742 140.522,32.006 141.219,32C142.377,31.99 142.719,31.449 142.251,30.387ZM99.343,31.127C98.83,29.917 98.209,29.684 97.469,30.416L97.475,31.141C97.97,31.137 98.223,31.317 98.226,31.677C98.229,32.04 98.475,32.094 98.976,31.853C99.221,31.851 99.283,31.728 99.159,31.491C99.029,31.247 99.091,31.129 99.343,31.127ZM129.615,27C129.422,27.002 129.33,27.221 129.333,27.67C129.521,27.669 129.62,27.72 129.62,27.835C129.621,27.945 129.716,28.002 129.908,28C130.476,27.326 130.375,26.993 129.615,27ZM142.706,26.122C142.536,26.317 142.453,26.515 142.454,26.712C142.624,26.904 142.881,27.003 143.224,27C143.391,26.8 143.434,26.556 143.348,26.264C143.258,25.969 143.045,25.921 142.706,26.122ZM76.655,26.334C76.149,26.339 75.905,26.932 75.913,28.12C76.417,28.707 76.796,29.002 77.048,29C77.546,28.696 77.794,28.025 77.788,26.991C77.78,25.947 77.402,25.728 76.655,26.334ZM114.338,27.687C113.749,26.394 113.258,25.622 112.871,25.372C112.675,25.112 112.094,24.99 111.127,25.001C111.717,26.289 111.769,27.519 111.295,28.691C110.817,29.861 110.583,30.963 110.589,32L111.17,31.994C111.548,30.691 112.124,29.974 112.898,29.84C113.67,29.697 114.15,28.983 114.338,27.687ZM46.618,24C46.149,24.448 45.921,24.784 45.923,25.009C46.16,25.674 46.635,26.005 47.338,25.999C47.801,25.549 47.913,25.104 47.678,24.662C47.438,24.213 47.084,23.997 46.618,24ZM147.885,23C147.218,23.826 146.998,24.649 147.229,25.464C147.679,26.004 148.126,26.134 148.576,25.862C149.019,25.309 149.126,24.692 148.9,24.016C148.669,23.332 148.33,22.996 147.885,23ZM154.122,21.252C153.865,21.254 153.481,21.182 152.971,21.044C152.454,20.897 152.074,21.119 151.826,21.709C151.83,22.286 152.024,22.579 152.407,22.575C152.791,22.572 153.235,22.711 153.753,23C154.002,22.704 154.258,22.483 154.513,22.338C154.764,22.185 154.636,21.828 154.123,21.252L154.122,21.252ZM193.312,20.003C193.122,23.489 192.93,26.727 192.74,29.716C192.547,32.706 192.785,35.934 193.45,39.418C192.82,40.916 192.831,42.531 193.484,44.272C194.136,46.003 194.04,47.747 193.201,49.5C192.79,52.24 191.577,54.117 189.558,55.134C187.661,56.077 185.799,57.09 183.978,58.172C182.265,57.935 180.453,57.888 178.533,58.034C176.613,58.174 174.796,58.003 173.087,57.522C170.101,58.297 167.012,58.51 163.807,58.167C160.603,57.822 157.508,58.037 154.527,58.809C152.819,59.321 151.169,59.458 149.568,59.227C148.006,58.999 146.455,58.702 144.919,58.337C143.445,57.98 141.944,57.744 140.431,57.631C138.935,57.515 137.337,57.845 135.636,58.608C133.504,59.121 131.527,58.955 129.709,58.101C127.887,57.241 126.023,57.445 124.111,58.711C115.576,59.283 107.306,59.173 99.297,58.375C91.287,57.572 83.125,57.831 74.81,59.157C72.455,58.676 70.485,58.757 68.89,59.395C67.292,60.028 65.423,60.109 63.288,59.632C61.358,58.402 59.38,58.111 57.359,58.754C55.332,59.391 53.25,59.223 51.112,58.249C48.125,59.024 45.195,59.051 42.308,58.329C39.422,57.608 36.487,57.879 33.51,59.156C31.491,59.428 29.463,59.633 27.43,59.77C25.296,59.913 23.371,59.37 21.656,58.142C19.902,58.666 18.146,59.18 16.386,59.684C14.573,60.194 12.811,60.087 11.101,59.358C9.389,59.122 7.891,58.324 6.601,56.972C5.344,55.645 4.054,54.349 2.732,53.087C1.865,51.349 1.372,49.422 1.252,47.312C1.126,45.196 1.061,43.02 1.045,40.78C1.03,38.54 1.015,36.358 0.999,34.248C0.989,32.178 0.759,30.115 0.315,28.094C-0.135,24.607 -0.102,21.434 0.409,18.572C0.919,15.702 1.057,12.652 0.825,9.422C1.449,7.175 2.559,5.73 4.155,5.097C5.78,4.441 7.331,3.613 8.781,2.628C11.127,2.608 13.422,2.645 15.665,2.753C17.906,2.856 20.195,2.526 22.54,1.757C27.662,1.46 32.513,1.48 37.108,1.812C41.698,2.145 46.554,2.036 51.673,1.495C52.745,2.477 53.707,2.655 54.559,2.028C55.404,1.396 56.364,1.201 57.435,1.442C59.038,1.421 60.64,1.469 62.239,1.586C63.731,1.694 65.123,1.992 66.408,2.482C67.683,1.723 69.011,1.396 70.403,1.512C71.789,1.622 73.175,1.732 74.567,1.848C75.953,1.958 77.395,2.01 78.89,1.996C80.354,1.991 81.789,1.591 83.044,0.838C86.674,1.301 90.251,1.456 93.773,1.302C97.293,1.141 100.976,1.294 104.821,1.762C107.183,1.237 109.604,1.026 112.021,1.137C114.472,1.237 116.767,1.029 118.899,0.514C122.099,0.234 125.246,0.328 128.346,0.802C131.441,1.271 134.481,1.12 137.467,0.346C138.96,0.578 140.671,0.562 142.59,0.3C144.72,0.28 146.961,0.196 149.311,0.053C151.657,-0.096 153.898,0.069 156.038,0.553L182.932,0.683C184.889,1.175 186.777,1.91 188.55,2.873C190.368,3.849 191.82,5.457 192.906,7.687C193.352,9.718 193.687,11.771 193.91,13.838C194.135,15.947 193.94,18.002 193.313,20.003L193.312,20.003Z" style="fill:rgb(244,203,92);"/>
        </g>
    </g>
</svg>
