<svg xmlns="http://www.w3.org/2000/svg" width="50" height="48" viewBox="0 0 50 48">
    <path fill="#F4CB5C" fill-rule="evenodd" d="M30 19.68h.75c.164 0 .25-.044.25-.138a.638.638 0 0 0-.624-.21c-.25.049-.376.164-.376.349zm.764-9.18l-.528-.139v.278l.528-.139zM30 41.456c.38.371.95.511 1.714.417.188 0 .286-.139.286-.417-.191-.185-.57-.3-1.143-.348-.57-.046-.857.07-.857.348zm.5-25.432c-.336.082-.5.286-.5.61 0 .243.414.366 1.25.366.499 0 .75-.203.75-.61-.668-.324-1.169-.447-1.5-.366zM29.254 37.54c0 .278.35.417 1.047.417.463-.091.698-.278.698-.557 0-.278-.409-.393-1.221-.347-.816.048-.992.209-.524.487zm.317-25.515c-.384.086-.572.257-.572.515.379.43.858.559 1.428.386.38 0 .522-.042.428-.13-.097-.083-.048-.212.144-.385-.385-.342-.858-.47-1.428-.386zM28.235 33.57h.53v-.14h-.53v.14zM28.118 8.5c0 .188.193.279.588.279.193-.091.294-.231.294-.417a1.733 1.733 0 0 0-.735-.14c-.293 0-.344.093-.147.278zm-1.69 16.722c-.57.093-.57.278 0 .556.38 0 .572-.139.572-.417-.191 0-.285-.022-.285-.07 0-.045-.1-.069-.287-.069zm-.955-3.023c0 .18-.123.334-.354.467-.237.133-.121.246.354.334.468 0 .82-.044 1.057-.133.47-.355.586-.622.354-.802-.475-.087-.765-.087-.882 0-.122.09-.297.134-.53.134zM25 38.179c.263.187.333.326.201.417-.137.094.062.187.601.279.263.093.531.093.8 0 .53-.185.53-.394 0-.626a2.14 2.14 0 0 0-1.602-.07zm0-18.54c.663 0 1-.045 1-.139l-1-.139v.278zm.4-6.569c-.268.084-.4.292-.4.62 0 .083.132.167.4.248.262.083.533.083.8 0 .532-.081.8-.248.8-.496 0-.412-.537-.536-1.6-.372zm.733 10.082c-1.211.187-1.449.418-.725.696h.725c0-.185.182-.278.543-.278.362 0 .418-.092.18-.279 0-.091-.124-.115-.361-.069-.243.047-.362.023-.362-.07zM23 15.589c0 .094.219.14.667.14 0-.092.052-.14.167-.14.11 0 .166-.045.166-.14-.666-.277-1-.23-1 .14zm-.882-2.973c.193.094.39.139.588.139.193-.091.294-.23.294-.417-.197-.092-.441-.116-.735-.07-.293.048-.344.163-.147.348zm.1 16.953c0 .187.395.279 1.189.279.394-.185.593-.324.593-.418-.199-.184-.645-.278-1.336-.278-.697 0-.845.139-.445.417zM23.946 20c-.929.154-1.484.283-1.666.384-.188.052-.279.207-.279.462a8.334 8.334 0 0 1 2.639-.038c.833.128 1.619.192 2.361.192v-.154c-.928-.102-1.436-.255-1.528-.462-.095-.204-.603-.333-1.527-.384zM20 36.592c.443.187.775.278 1 .278.667-.09 1-.278 1-.557a2.245 2.245 0 0 0-1.334-.138c-.448.093-.666.232-.666.417zm0-25.017c.546.278 1.092.372 1.638.278.362-.184.452-.37.272-.556-.366-.185-.776-.23-1.228-.14-.457.094-.682.233-.682.418zm-.869-1.394c0 .093-.036.228-.108.41-.075.183.034.32.326.409.288 0 .434-.069.434-.205 0-.136.071-.294.217-.477a1.2 1.2 0 0 1-.326-.273c-.074-.09-.253-.045-.543.136zM17.178.178c2.935.053 5.665.106 8.18.158 2.517.054 5.24 0 8.18-.158 1.258.158 2.62.158 4.09 0a17.622 17.622 0 0 1 4.405.08c2.305.105 3.878.409 4.719.91.836.502 1.676.964 2.516 1.385-.21.424-.265.872-.158 1.347.104.475-.052.924-.47 1.346.628.74.787 1.505.47 2.296-.314.793-.156 1.558.473 2.297.417.423.52.832.314 1.228-.211.396-.47.78-.787 1.148-.314.37-.525.74-.628 1.109-.108.37.158.765.786 1.188.418.528.262 1.016-.472 1.464-.737.45-.58.911.472 1.387.418 2.112.262 4.157-.472 6.137-.737 1.98-.58 3.999.472 6.058-.422.581-.368 1.069.159 1.465.52.396.573.858.156 1.386-1.052.475-1.312.963-.787 1.465.521.502.365 1.017-.472 1.544.63.74.63 1.465 0 2.178-.628.712-.422 1.439.63 2.178.207.474.363.976.473 1.504.103.528-.369 1.003-1.417 1.426.418.423.836.858 1.258 1.306.418.45.315.885-.314 1.306-.21.424-.895.793-2.045 1.11-1.155.316-2.256.633-3.303.95-1.47.211-3.097.33-4.876.356-1.786.027-3.618.04-5.507.04H27.72c-1.786 0-3.517.053-5.193.158-2.939.105-5.612.092-8.021-.04-2.414-.13-4.984-.17-7.707-.118-1.89-.159-3.098-.436-3.618-.832-.527-.396-1.21-.778-2.045-1.148 0-.58.048-1.148.156-1.703.104-.554-.156-1.12-.786-1.702-.211-1.268-.157-2.468.158-3.603.313-1.135.26-2.337-.158-3.604.837-.263.993-.5.471-.712-.524-.211-.682-.448-.471-.713 0-.422.05-.818.158-1.188.103-.369.362-.713.786-1.03-.63-.316-.894-.645-.786-.99.103-.342.206-.685.313-1.03.104-.342.159-.698.159-1.068 0-.368-.316-.712-.944-1.03.417-.897.575-1.781.472-2.652-.108-.871.048-1.782.472-2.733-.424-.58-.58-1.174-.472-1.781.103-.607-.055-1.174-.472-1.703-.211-.792-.108-1.57.314-2.336.417-.765.314-1.517-.314-2.257.206-.369.206-.792 0-1.267 0-.527-.056-1.081-.158-1.663-.108-.58.05-1.135.472-1.663l.314-6.652c.419-.475 1.048-.936 1.889-1.385.835-.449 2.2-.805 4.09-1.07C8.474.153 10.204.074 11.988.02c1.78-.053 3.51 0 5.19.158z" style="mix-blend-mode:difference"/>
</svg>
